<svg id="ic_ksaedTit" xmlns="http://www.w3.org/2000/svg" width="96" height="96" viewBox="0 0 96 96">
  <rect id="Rectangle_102" data-name="Rectangle 102" width="96" height="96" fill="none"/>
  <g id="Group_29726" data-name="Group 29726" transform="translate(18 18)">
    <g id="Group_29725" data-name="Group 29725">
      <g id="Group_29727" data-name="Group 29727">
        <path id="Path_28154" data-name="Path 28154" d="M101.581,13.383S84.156,9.8,78.022,20.813l-18.289-.281a6,6,0,1,0,0-12h36c3.313,0,5.85,4.85,5.85,4.85" transform="translate(-52.734 -7.533)" fill="#d8f2d6"/>
        <path id="Path_28155" data-name="Path 28155" d="M101.73,407.067a6,6,0,0,1-6,6h-36a6,6,0,0,0,0-12h36a6,6,0,0,1,6,6" transform="translate(-52.734 -354.07)" fill="#d8f2d6"/>
        <path id="Path_28157" data-name="Path 28157" d="M178.78,221.013a26.837,26.837,0,0,0-1.74,5.45,35.949,35.949,0,0,0-.79,6.31l-4.56,3.34a34.168,34.168,0,0,1,4.29-11.059A33.439,33.439,0,0,1,178.78,221.013Z" transform="translate(-151.572 -195.115)" fill="#e8edfc"/>
        <path id="Path_28158" data-name="Path 28158" d="M272.984,48.477c-.406,2.967-1.9,10.164-6.939,11.781-3.14,1.01-6.43,1.93-8.919,4.26a11.236,11.236,0,0,0-2.34,3.11,12,12,0,0,1-8.837,6.781c3.769.595,8.886-1.056,11.837-6.781a11.237,11.237,0,0,1,2.34-3.11c2.49-2.33,5.78-3.25,8.919-4.26,6.39-2.05,7.08-13.069,7.08-13.069a14.937,14.937,0,0,1-3.14,1.288" transform="translate(-217.128 -41.659)" fill="#d8f2d6"/>
        <path id="Path_28159" data-name="Path 28159" d="M17.532,66.53a6,6,0,0,1-6-6v-46a6,6,0,0,1,6-6h-3a6,6,0,0,0-6,6v46a6,6,0,0,0,6,6Z" transform="translate(-7.533 -7.534)" fill="#d8f2d6"/>
        <path id="Path_28160" data-name="Path 28160" d="M1.133,411.6a1,1,0,0,1-.01-2h.01a1,1,0,0,1,0,2" transform="translate(-0.113 -361.603)" fill="#979797"/>
        <path id="Path_28161" data-name="Path 28161" d="M69.267,300.666h8a1,1,0,0,0,0-2h-8a1,1,0,0,0,0,2" transform="translate(-60.268 -263.669)" fill="#979797"/>
        <path id="Path_28162" data-name="Path 28162" d="M69.267,258h10a1,1,0,1,0,0-2h-10a1,1,0,0,0,0,2" transform="translate(-60.268 -226.002)" fill="#979797"/>
        <path id="Path_28163" data-name="Path 28163" d="M69.267,215.333h10a1,1,0,1,0,0-2h-10a1,1,0,0,0,0,2" transform="translate(-60.268 -188.335)" fill="#979797"/>
        <path id="Path_28164" data-name="Path 28164" d="M69.267,172.666h10a1,1,0,1,0,0-2h-10a1,1,0,0,0,0,2" transform="translate(-60.268 -150.667)" fill="#979797"/>
        <path id="Path_28165" data-name="Path 28165" d="M26.281,12H11.9a6.99,6.99,0,0,0,0-10H43a4.989,4.989,0,0,1,4.869,3.979,2.092,2.092,0,0,0,.5.157,3.826,3.826,0,0,0,.849.054,7.146,7.146,0,0,0,.72-.059A7,7,0,0,0,43,0H7A7.007,7.007,0,0,0,0,7V45a1,1,0,1,0,2,0V7a5,5,0,1,1,5,5,1,1,0,0,0,0,2H24.731Z" fill="#979797"/>
        <path id="Path_28166" data-name="Path 28166" d="M209.1,38.81a1,1,0,0,0-1.019-.028,16.617,16.617,0,0,1-7.618,1.9c-.579.121-10.831-.5-13.627-.152a.343.343,0,0,0-.071.011,16.256,16.256,0,0,0-9.244,4.838c-.247.249-2.359,2.745-2.359,2.745-5.158,7.01-3.378,13.368-2.306,15.879-1.769,3.048-3.431,7.872-3.431,10.936l.274.623c.076-.021,5.143-2.974,5.143-2.974a1,1,0,0,0,.41-.8,34.009,34.009,0,0,1,.5-4.7,9.419,9.419,0,0,0,4.121.9,11.393,11.393,0,0,0,2.247-.227,12.51,12.51,0,0,0,7.381-4.691c.019-.019.029-.044.047-.064a15.962,15.962,0,0,0,1.576-2.463,34.812,34.812,0,0,1,2.445-3.094v-.027c2.086-1.791,4.746-2.638,7.511-3.519l.714-.228c6.958-2.234,7.741-13.482,7.773-13.96a1,1,0,0,0-.467-.908M173.273,71.264,171.3,72.706a35.765,35.765,0,0,1,2.539-6.323,36.792,36.792,0,0,0-.567,4.881m27.911-19.491h0l-.708.227a31.812,31.812,0,0,0-5.9,2.334,3.7,3.7,0,0,1-2.3-.917,1,1,0,1,0-1.414,1.416,4.8,4.8,0,0,0,1.516,1c-.157.132-.31.27-.462.41-.027.024-.054.047-.079.074a12.1,12.1,0,0,0-2.5,3.322,14.125,14.125,0,0,1-1.059,1.735,12.483,12.483,0,0,1-5.265-1.142,1,1,0,1,0-.894,1.79,13.312,13.312,0,0,0,4.493,1.246,10.336,10.336,0,0,1-4.9,2.544,7.875,7.875,0,0,1-5.551-.76,25.805,25.805,0,0,1,1.474-4.5c7.719-9.526,13.323-11.737,22.934-13.07A1,1,0,1,0,200.3,45.5c-9.972,1.384-16.15,3.813-24.272,13.876a.427.427,0,0,0-.027.034c-.653.81-1.24,1.623-1.785,2.432A13.849,13.849,0,0,1,176.365,49.9a10.166,10.166,0,0,0,.242,1.467,1,1,0,1,0,1.94-.492,9.261,9.261,0,0,1-.143-3.521c.176-.189.354-.378.542-.568a14.52,14.52,0,0,1,6.178-3.815,9.249,9.249,0,0,0-.551,3.15,1,1,0,1,0,2,0,6.935,6.935,0,0,1,1.012-3.683,27.617,27.617,0,0,1,5.024-.14,6.92,6.92,0,0,0-.936,1.379,1,1,0,0,0,.452,1.34.989.989,0,0,0,.448.1,1,1,0,0,0,.9-.556,5.93,5.93,0,0,1,1.862-2.1c3.957.272,8.025.521,12.028-1.122-.484,3.035-1.96,9.077-6.178,10.425" transform="translate(-149.575 -34.126)" fill="#1ba486"/>
        <path id="Path_28167" data-name="Path 28167" d="M44,227.65V205.674L42,208.074v19.5H7a1,1,0,0,0,0,2,5,5,0,1,1-5,5,1,1,0,0,0-2,0,7.007,7.007,0,0,0,7,7H43a7,7,0,0,0,1-13.919m-1,11.919H11.9a6.99,6.99,0,0,0,0-10H43a5,5,0,1,1,0,10" transform="translate(0 -181.573)" fill="#979797"/>
        <path id="Path_28168" data-name="Path 28168" d="M68.267,342.334a1,1,0,0,0,1,1h9.451s.847.073.847-.945a.94.94,0,0,0-.847-1.055H69.267a1,1,0,0,0-1,1" transform="translate(-60.268 -301.337)" fill="#979797"/>
      </g>
    </g>
  </g>
</svg>
