<svg xmlns="http://www.w3.org/2000/svg" xmlns:xlink="http://www.w3.org/1999/xlink" width="96" height="96" viewBox="0 0 96 96">
  <defs>
    <clipPath id="clip-path">
      <rect id="Rectangle_12785" data-name="Rectangle 12785" width="67.308" height="63.5" fill="none"/>
    </clipPath>
  </defs>
  <g id="ic_dwawenTit" transform="translate(-374 -1040)">
    <rect id="Rectangle_102" data-name="Rectangle 102" width="96" height="96" transform="translate(374 1040)" fill="none"/>
    <g id="Group_29718" data-name="Group 29718" transform="translate(388 1056)">
      <g id="Group_29716" data-name="Group 29716" clip-path="url(#clip-path)">
        <path id="Path_28124" data-name="Path 28124" d="M147.965,206.764l2.757-.244c-.865-.083-1.734-.127-2.6-.133C148.073,206.513,148.018,206.639,147.965,206.764Z" transform="translate(-127.723 -178.152)" fill="#d4e1f4"/>
        <path id="Path_28125" data-name="Path 28125" d="M41.982,210.263c-3.041.8-5.253,2.192-5.785,4.07l-3.292,22.725a2.954,2.954,0,0,0,3.772,3.25c.482-.143,1-.287,1.54-.427a3,3,0,0,1-.43-.373,2.92,2.92,0,0,1-.777-2.45L40.3,214.333c.428-1.511,1.944-2.708,4.1-3.534q-.6-.394-1.174-.822Q42.587,210.1,41.982,210.263Z" transform="translate(-28.377 -181.251)" fill="#d8f2d6"/>
        <path id="Path_28126" data-name="Path 28126" d="M79.621,316.327c-2.955,0-5.95.086-8.9.25a.821.821,0,0,0,.091,1.639c2.921-.162,5.885-.246,8.81-.248,2.993,0,6.021.081,9.007.248h.046a.821.821,0,0,0,.045-1.641c-2.983-.166-6.01-.25-9-.25Z" transform="translate(-60.376 -273.052)" fill="#979797"/>
        <path id="Path_28127" data-name="Path 28127" d="M177.112,348.773h-3.893a.821.821,0,1,0,0,1.642h3.893a.821.821,0,1,0,0-1.642Z" transform="translate(-148.813 -301.059)" fill="#979797"/>
        <path id="Path_28128" data-name="Path 28128" d="M70.767,350.415h9.539a.821.821,0,0,0,0-1.642H70.767a.821.821,0,1,0,0,1.642" transform="translate(-60.377 -301.059)" fill="#979797"/>
        <path id="Path_28129" data-name="Path 28129" d="M69.949,377.633a.823.823,0,0,0,.894.74c2.888-.274,5.823-.414,8.724-.419,3-.008,6.04.137,9.031.419.026,0,.052,0,.078,0a.821.821,0,0,0,.076-1.638c-3.043-.287-6.135-.43-9.188-.426-2.952.005-5.937.148-8.876.426a.821.821,0,0,0-.74.895" transform="translate(-60.376 -324.831)" fill="#979797"/>
        <path id="Path_28130" data-name="Path 28130" d="M79.68,287.518H70.767a.821.821,0,0,0,0,1.642H79.68a.821.821,0,0,0,0-1.642" transform="translate(-60.377 -248.184)" fill="#979797"/>
        <path id="Path_28131" data-name="Path 28131" d="M177.112,287.518h-3.893a.821.821,0,1,0,0,1.642h3.893a.821.821,0,0,0,0-1.642Z" transform="translate(-148.813 -248.184)" fill="#979797"/>
        <path id="Path_28132" data-name="Path 28132" d="M92.438,256.073a.821.821,0,0,0-.771-.868c-3.159-.188-6.366-.277-9.531-.268-2.846.009-5.73.1-8.573.268a.821.821,0,1,0,.1,1.639c2.812-.167,5.666-.256,8.481-.265,3.133-.009,6.3.079,9.428.265l.049,0A.821.821,0,0,0,92.438,256.073Z" transform="translate(-62.833 -220.06)" fill="#979797"/>
        <path id="Path_28133" data-name="Path 28133" d="M268.7,309.927a.821.821,0,0,0-.821.821v1a.821.821,0,0,0,1.642,0v-1a.821.821,0,0,0-.821-.821" transform="translate(-231.234 -267.527)" fill="#979797"/>
        <path id="Path_28134" data-name="Path 28134" d="M266.887,256.891h.021a.821.821,0,0,0,.8-.841h0l-.147-5.843a.821.821,0,1,0-1.642.041l.147,5.843A.821.821,0,0,0,266.887,256.891Z" transform="translate(-229.54 -215.286)" fill="#979797"/>
        <path id="Path_28135" data-name="Path 28135" d="M67.257,185.366l-5.69-30.147a2.661,2.661,0,0,0-2.6-2.127h-.342l-1.527-6.76a1.846,1.846,0,0,0-1.262-1.4,1.881,1.881,0,0,0-1.852.42c-1.591,1.49-5.2,4.006-11.506,4.119-2.8.05-6.6.708-8.808,3.555a7.264,7.264,0,0,0-1.193,2.272,24.328,24.328,0,0,0-12.067-2.989l-.012,1.642c4.634.034,8.911,1.168,11.817,3.124l.239,27.1a28.144,28.144,0,0,0-12.709-2.813,43.587,43.587,0,0,0-11.677,1.8,2.135,2.135,0,0,1-2.013-.433,2.09,2.09,0,0,1-.713-1.913l1.851-12.78a.821.821,0,1,0-1.624-.242v.006l-1.85,12.78a3.748,3.748,0,0,0,.927,3.06l.609,1.01a5.226,5.226,0,0,0,2.727,2.23H2.686a1.05,1.05,0,0,1-.774-.323.992.992,0,0,1-.258-.841l5.123-30.143a1.007,1.007,0,0,1,1-.849H9.5a5.581,5.581,0,0,0-2.481,3.08L6.6,160.7a.821.821,0,1,0,1.624.242v-.006l.4-2.774c.5-1.645,2.887-3.035,6.39-3.725l-.317-1.611q-.622.123-1.2.271H7.775a2.64,2.64,0,0,0-2.618,2.223L.034,185.457a2.65,2.65,0,0,0,.921,2.461,2.733,2.733,0,0,0,1.758.614h61.88a2.726,2.726,0,0,0,1.929-.768,2.642,2.642,0,0,0,.735-2.4m-55.8,1.524.053-.018c3.687-1.365,9.914-2.386,19.143.018Zm-.517-1.558a3.543,3.543,0,0,1-3.273-.438,3.832,3.832,0,0,0,.867-.15c4.972-1.474,14.174-3.226,22.395.521C21.361,182.8,14.831,183.892,10.939,185.332ZM33.852,156.67c.03-.405.566-5.408,8.654-5.553,6.855-.123,10.836-2.912,12.6-4.563a.227.227,0,0,1,.233-.054.215.215,0,0,1,.153.17l0,.015,4.871,21.562a.226.226,0,0,1-.084.221,11.261,11.261,0,0,0-1.074,1.017c-1.893,1.948-5.061,5.206-16.771,5.96-2.673.172-6.241.952-8.389,3.639Zm.233,26.487c.008-.289.266-5.545,8.458-6.073,11-.708,14.932-3.6,17.113-5.719l1.37,9.46a2.09,2.09,0,0,1-.713,1.913,2.136,2.136,0,0,1-2.013.433c-11.342-3.361-19.276-1.473-24.206,1.018Zm1.873,3.733c9.117-2.371,15.263-1.364,18.9-.018l.053.018Zm19.47-1.558c-6.583-2.437-14.051-1.535-19.842-.041,4.69-2.157,11.977-3.591,22.248-.547a3.826,3.826,0,0,0,.867.15A3.542,3.542,0,0,1,55.428,185.332Zm10.009,1.187a1.009,1.009,0,0,1-.784.371H58.388a5.224,5.224,0,0,0,2.727-2.23l.609-1.011a3.748,3.748,0,0,0,.927-3.06l-1.545-10.67c.064-.057.127-.111.189-.159a1.858,1.858,0,0,0,.678-1.849l0-.015L59,154.734a1.011,1.011,0,0,1,.96.8l5.69,30.147A1,1,0,0,1,65.437,186.519Z" transform="translate(0 -125.032)" fill="#979797"/>
        <path id="Path_28136" data-name="Path 28136" d="M58.328,39.792,55.4,31.132l.9-2.035A21.982,21.982,0,0,0,53.492,6.642a1.088,1.088,0,0,0-1.449-.212,4.811,4.811,0,0,0-.6.374c.012-.085.024-.164.034-.236.163-1.1.281-1.9-.222-2.377A21.986,21.986,0,0,0,45.026.071a.821.821,0,0,0-1.082.42L42.922,2.808A21.846,21.846,0,0,0,41.5,16.143a4.377,4.377,0,0,0,1.341,1.807,1.414,1.414,0,0,0-.394,1.462A21.847,21.847,0,0,0,53.854,31.678l2.919,8.639a.821.821,0,0,0,1.559-.514l0-.011Zm-3.7-10.962-5.406-16a.821.821,0,1,0-1.559.514l0,.011,5.441,16.1a20.2,20.2,0,0,1-9.038-10.414,2.574,2.574,0,0,1,.458-.367.821.821,0,0,0,.108-1.32,9.332,9.332,0,0,1-1.53-1.587,20.216,20.216,0,0,1,1.322-12.3l.685-1.552a20.306,20.306,0,0,1,4.869,3.325,10.477,10.477,0,0,1-.124,1.083c-.155,1.051-.267,1.81.168,2.285.677.739,1.6.083,2.2-.35.08-.057.185-.132.285-.2A20.34,20.34,0,0,1,54.8,28.434Z" transform="translate(-35.426 -0.001)" fill="#1ba486"/>
      </g>
    </g>
  </g>
</svg>
