<svg xmlns="http://www.w3.org/2000/svg" xmlns:xlink="http://www.w3.org/1999/xlink" width="433.762" height="428.452" viewBox="0 0 433.762 428.452">
  <defs>
    <filter id="Path_27894" x="0" y="0" width="433.762" height="428.452" filterUnits="userSpaceOnUse">
      <feOffset dy="15" input="SourceAlpha"/>
      <feGaussianBlur stdDeviation="7.5" result="blur"/>
      <feFlood flood-opacity="0.161"/>
      <feComposite operator="in" in2="blur"/>
      <feComposite in="SourceGraphic"/>
    </filter>
    <filter id="Path_27895" x="4.813" y="4.747" width="424.137" height="418.958" filterUnits="userSpaceOnUse">
      <feOffset dy="15" input="SourceAlpha"/>
      <feGaussianBlur stdDeviation="7.5" result="blur-2"/>
      <feFlood flood-opacity="0.161"/>
      <feComposite operator="in" in2="blur-2"/>
      <feComposite in="SourceGraphic"/>
    </filter>
  </defs>
  <g id="name-app" transform="translate(22.5 7.5)">
    <g transform="matrix(1, 0, 0, 1, -22.5, -7.5)" filter="url(#Path_27894)" style="mix-blend-mode: soft-light;isolation: isolate">
      <path id="Path_27894-2" data-name="Path 27894" d="M435.7,407.238a17.125,17.125,0,0,0-1.412-7.44q0-1.646,2.634-7.815c.222-.5.408-.754.565-.754.189,0,.411.268.661.8q.75,1.6,3.484,8.852,2.873,7.536,3.341,9.276a7.9,7.9,0,0,1,.379,1.98q0,2.069-4-2.5-.472-.659-.472.565c0,.282.69,19.207,2.072,38.232s2.073,22.538,2.073,24.925a51.569,51.569,0,0,1-3.345,19.3,24.755,24.755,0,0,1-1.129,2.448c-.439.754-.7.865-.8.332a13.6,13.6,0,0,1,.139-3.581,78.513,78.513,0,0,0,.425-8.759c0-3.012-.768-8.222-2.308-30.009S435.7,409.843,435.7,407.238Zm-5.171,40.019a12.434,12.434,0,0,0-.94-4.9q-.944-2.214-2.169-2.212-1.126,0-2.966,3.531a61.449,61.449,0,0,1-3.766,6.593Q418,453.8,414.9,453.8v9.419a6.74,6.74,0,0,0,5.507-3.109,42.433,42.433,0,0,0,3.673-6.875q1.694-3.624,3.059-3.859a6.544,6.544,0,0,1,.518,3.248q0,3.248.615,3.248.986,0,1.694-3.909A26.739,26.739,0,0,0,430.531,447.257Zm-17.763,15.78a6.906,6.906,0,0,0,2.4.329v-9.42a6.4,6.4,0,0,1-4.853-1.644,14.7,14.7,0,0,1-1.883-3.391q-.7-1.554-1.176-1.554c-.282,0-.536.375-.754,1.129a52.658,52.658,0,0,0-1.837,6.639,6.521,6.521,0,0,0,.847,2.637q4.476,8.855,4.474,16.763-1.222,2.964-7.111,7.769a114.9,114.9,0,0,1-18.457,11.96q-9.042,4.9-22.7,10.688c-.365.157-17.728,8.019-17.728,9.948.029.1.186.143.472.143a42.422,42.422,0,0,0,4.424-.565c2.387-.375-.554.175,8.737-2.087q13.138-3.2,13.607-3.2,1.887,0,13.565-6.4,13.32-7.252,20.715-13.7a20.348,20.348,0,0,0,6.547-12.007Q412.762,473.35,412.767,463.037Zm-30.9-18.267a34.139,34.139,0,0,0-6.593-4.331,44.038,44.038,0,0,1-8.287-6.218,9.219,9.219,0,0,0,2.258.282q2.262,0,2.262-.847c0-.44-.536-.972-1.6-1.6l-8.851-4.52a5.552,5.552,0,0,0-1.7-.658c-.314,0-.536.439-.657,1.315a18.245,18.245,0,0,0-.472,6.875,23.5,23.5,0,0,0-5.182,6.968,26.217,26.217,0,0,0-3.012,12.528,14.513,14.513,0,0,0,1.883,6.968,18.141,18.141,0,0,1-7.908,1.508v9.416a20.88,20.88,0,0,0,8.19-2.073,31.009,31.009,0,0,0,7.815-4.71,47.571,47.571,0,0,0,14.222,2.169,15.055,15.055,0,0,0,6.686-1.133,9.63,9.63,0,0,0,2.92-3.295,17.431,17.431,0,0,0,1.98-8.851,13.1,13.1,0,0,0-3.956-9.795Zm-21.1,11.96a13.781,13.781,0,0,1-5.178-1.883q-3.012-1.882-3.012-4.428,0-3.012,3.155-6.732t5.321-3.72q1.41,0,3.295,3.105a12.288,12.288,0,0,1,2.073,6.311q0,3.956-5.653,7.347Zm16.388,2.73a42.457,42.457,0,0,1-10.17-1.411,35.469,35.469,0,0,0,2.73-12.242,31.44,31.44,0,0,0,6.782,4.71q4.519,2.632,5.46,3.952a6.645,6.645,0,0,1,1.226,3.012h0Q383.186,459.463,377.158,459.46ZM291.6,470.848a14.832,14.832,0,0,0,.943,5.65.676.676,0,0,0,.565.189,5.435,5.435,0,0,0,2.38-.754c.954-.5,1.436-.972,1.436-1.412a7.377,7.377,0,0,1-2.262-4.853q0-2.776,3.766-6.686,3.484-3.672,5.274-3.674c.815,0,1.726,1.151,2.73,3.438a21.685,21.685,0,0,0,3.956,6.454q3.473,3.425,9.473,3.438l24.142-.182v-9.416l-24.153.179a9.99,9.99,0,0,1-7.958-3.437,26.085,26.085,0,0,1-3.531-6.45q-1.458-3.436-2.777-3.438-3.768,0-8.194,5.746A28.959,28.959,0,0,0,291.6,470.848Zm23.62,13.918a15.3,15.3,0,0,0-2.333-8.876,7.308,7.308,0,0,0-6.332-3.366,22.914,22.914,0,0,0-9.512,1.93l-4.378,1.976q-7.627,5.462-7.629,20.3,0,8.1,6.5,31.971a84.436,84.436,0,0,1,.986,8.994q.327,4.851.754,4.849t1.083-4.946q.707-5.317-1.411-16.338-1.458-6.121-2.92-12.243-2.45-10.5-2.448-14.644,0-8.426,7.108-11.631a24.947,24.947,0,0,0,4.849,8.333q3.865,4.192,8.476,4.192a6.02,6.02,0,0,0,5.228-2.966,13.3,13.3,0,0,0,1.98-7.533Zm-7.49-3.016q2.45,1.179,2.451,2.637,0,1.04-1.883.943a7.828,7.828,0,0,1-6.829-3.956h0Q305.853,480.856,307.734,481.751Zm117.98-3.9q3.152-5.081,3.155-6.686,0-.423-3.581-2.873t-4.049-2.448c-.222,0-.422.189-.615.565l-3.012,6.168q-.188.424,0,.568,3.768,2.353,7.3,5.035C425.2,478.4,425.46,478.288,425.714,477.849Zm-90.765-.586a15.29,15.29,0,0,0-3.438-2.026c-.218,0-.422.189-.611.565l-3.013,6.171c-.125.279-.125.472,0,.565q3.768,2.353,7.3,5.035c.282.222.547.111.8-.325a43.911,43.911,0,0,0,2.591-5.039q3.907,2.541,7.018,4.849c.282.189.547.078.8-.333q3.152-5.081,3.155-6.686,0-.423-3.58-2.873t-4.049-2.448q-.332,0-.611.568l-2.4,4.942A30.349,30.349,0,0,0,334.949,477.263Zm191.792,79.712q-4.047-7.349-9.041-7.347-3.763,0-7.25,4.145a15.359,15.359,0,0,0-3.766,10.267q0,7.531,11.113,7.533,5.178,0,7.25,1.129a6.3,6.3,0,0,1,2.448,2.637q0,1.785-5.367,5.932-7.065,5.558-20.626,12.9-9.133,4.894-22.695,10.642-19.682,8.378-21.473,9.227-5.178,2.353-5.178,2.637c.061.125.218.189.472.189q.847,0,4.613-.565,3.484-.563,17.42-3.956,13.089-3.2,13.658-3.2,2.262,0,15.537-7.626,15.067-8.48,21.094-15.258,5.274-6.025,5.274-17.138a25.518,25.518,0,0,0-3.484-12.15Zm-15.255,3.295q0-2.256,4.142-2.258,2.734,0,6.028,4.424a22.309,22.309,0,0,1-4.424.472h0Q511.486,562.907,511.486,560.269Zm-22.12-15.762q2.31,32.681,2.308,37.2a79.408,79.408,0,0,1-.425,8.758,13.444,13.444,0,0,0-.139,3.581q.139.8.8-.332a25.162,25.162,0,0,0,1.129-2.448,51.56,51.56,0,0,0,3.345-19.307q0-3.575-2.072-32.111c-1.383-19.025-2.073-44.489-2.073-44.771q0-1.228.472-.568,4,4.572,4,2.5a7.9,7.9,0,0,0-.379-1.98q-.472-1.737-3.345-9.277-2.728-7.247-3.481-8.851c-.254-.532-.472-.8-.661-.8-.157,0-.347.254-.565.754q-2.637,6.169-2.637,7.815a17.122,17.122,0,0,1,1.415,7.44C487.062,494.712,487.827,522.724,489.367,544.507ZM475.352,557.55q-4.052-7.343-9.041-7.343-3.768,0-7.254,4.142a15.382,15.382,0,0,0-3.766,10.266q0,7.536,11.113,7.533,5.178,0,7.251,1.133a6.32,6.32,0,0,1,2.451,2.634q0,1.79-5.371,5.935-7.059,5.559-20.622,12.9-9.139,4.894-22.695,10.642-19.688,8.383-21.473,9.23-5.178,2.353-5.181,2.637c.064.125.222.189.472.189q.847,0,4.613-.565,3.484-.568,17.424-3.959,13.089-3.2,13.654-3.2,2.262,0,15.541-7.626,15.062-8.48,21.094-15.255,5.274-6.03,5.274-17.142a25.528,25.528,0,0,0-3.484-12.15Zm-15.258,3.3q0-2.262,4.145-2.262,2.728,0,6.028,4.427a22.63,22.63,0,0,1-4.427.472h0Q460.093,563.486,460.093,560.848ZM447,559.487a12.416,12.416,0,0,0-.943-4.9q-.943-2.214-2.165-2.216-1.131,0-2.97,3.53a61.653,61.653,0,0,1-3.766,6.6q-2.68,3.533-5.792,3.531v9.416a6.732,6.732,0,0,0,5.51-3.105,42.2,42.2,0,0,0,3.674-6.879c1.133-2.416,2.148-3.7,3.062-3.859a6.61,6.61,0,0,1,.518,3.252c0,2.165.2,3.245.611,3.245q.986,0,1.694-3.906A26.543,26.543,0,0,0,447,559.487Zm-22.963,38.846A16.71,16.71,0,0,0,428,589.857a71.319,71.319,0,0,0,1.129-14.69,7.165,7.165,0,0,0,2.355.282v-9.416q-3.3,0-4.8-1.6a13.69,13.69,0,0,1-1.883-3.391q-.756-1.506-1.226-1.508c-.25,0-.5.347-.75,1.036a57.871,57.871,0,0,0-1.79,6.686,6.521,6.521,0,0,0,.847,2.637,37.612,37.612,0,0,1,4.424,16.763q-1.126,2.546-7.815,7.722a83.437,83.437,0,0,1-17.328,10.266,56.779,56.779,0,0,1-22.509,5.085q-12.339,0-18.835-8a20.7,20.7,0,0,1-4.8-13.186,33.539,33.539,0,0,1,.94-6.4q.568-2.444,1.129-4.9.284-1.6-.189-1.6c-.314,0-.625.407-.94,1.222a47,47,0,0,0-2.355,9.23,45.42,45.42,0,0,0-.565,7.061,24.182,24.182,0,0,0,1.319,8.665q6.684,17.329,24.392,17.327,12.334,0,26.461-7.347A81.121,81.121,0,0,0,424.041,598.333Zm15.777-15.891a15.285,15.285,0,0,0-3.438-2.023c-.218,0-.425.186-.611.565l-3.016,6.168c-.125.282-.125.472,0,.564q3.774,2.353,7.3,5.039c.282.218.55.111.8-.329a43.948,43.948,0,0,0,2.591-5.039q3.907,2.541,7.015,4.849c.282.189.547.079.8-.329q3.157-5.087,3.155-6.686,0-.423-3.577-2.873T446.79,579.9c-.222,0-.425.186-.615.565l-2.4,4.942A30.978,30.978,0,0,0,439.818,582.442Zm-39.029-6.114q3.157-5.087,3.155-6.686,0-.424-3.577-2.873t-4.049-2.451c-.222,0-.425.189-.615.564l-3.012,6.171c-.125.282-.125.472,0,.565q3.768,2.353,7.3,5.039C400.271,576.875,400.539,576.768,400.789,576.328Zm-67.119-30.2a15.384,15.384,0,0,0-3.438-2.026c-.218,0-.422.19-.611.565l-3.012,6.168c-.125.282-.125.472,0,.565q3.768,2.358,7.3,5.038c.279.222.547.111.8-.329a43.627,43.627,0,0,0,2.591-5.039q3.907,2.546,7.018,4.849c.279.19.547.079.8-.329q3.157-5.087,3.155-6.686,0-.423-3.577-2.873t-4.052-2.448c-.218,0-.422.189-.608.565l-2.4,4.946A30.285,30.285,0,0,0,333.67,546.126Zm137.7-48.784q2.3,32.68,2.308,37.2a79.413,79.413,0,0,1-.425,8.758,13.411,13.411,0,0,0-.139,3.577c.093.532.361.425.8-.329a26.05,26.05,0,0,0,1.129-2.448,51.583,51.583,0,0,0,3.341-19.3q0-3.581-2.069-32.114t-2.072-28.959c0-.818.157-1,.472-.565q4,4.567,4,2.494a7.886,7.886,0,0,0-.379-1.976q-.472-1.742-3.341-9.277-2.733-7.252-3.488-8.855c-.25-.532-.468-.8-.657-.8-.157,0-.343.254-.565.754q-2.637,6.169-2.637,7.819a17.053,17.053,0,0,1,1.411,7.44Q469.059,464.665,471.367,497.342ZM458.428,460.6q-1.79-24.485-1.79-24.767c0-.818.157-1,.472-.568q3.956,4.519,3.956,2.448a12.224,12.224,0,0,0-.282-1.976q-.568-1.694-3.391-9.23-2.734-7.252-3.484-8.851c-.254-.565-.472-.847-.661-.847s-.375.25-.565.754q-2.637,6.212-2.637,7.815a17.071,17.071,0,0,1,1.415,7.44q0,4.99,2.022,32.818c1.351,18.553,2.026,55.745,2.026,58.382q0,6.5-1.226,7.533a13.672,13.672,0,0,1-8.758,3.484v9.416q5.655,0,9.795-6.593,4.894-7.815,4.9-21.469C460.219,513.251,459.618,476.923,458.428,460.6Zm-65.208,66.594a2.645,2.645,0,0,0-1.5.708,52.564,52.564,0,0,1-12.575,7.347,39.8,39.8,0,0,1-15.019,3.248,27.517,27.517,0,0,1-11.96-2.308v9.419a28.242,28.242,0,0,0,10.642,2.3,33.678,33.678,0,0,0,14.269-3.531,46.436,46.436,0,0,0,9.98-6.214,3.017,3.017,0,0,1,1.6-.847c.25,0,.375.157.375.468q.375,9.563,9.7,9.559,5.558,0,11.16-4.992a25.956,25.956,0,0,0,5.274-6.071,3.724,3.724,0,0,1,.565-.8c.1,0,.172.268.236.8q1.41,9.509,8.948,9.509,7.392,0,11.442-10.406c.311-.783.6-.783.847,0q3.061,8.994,10.17,8.994v-9.416a6.879,6.879,0,0,1-5.11-2.026,7.182,7.182,0,0,1-2-5.274,10.943,10.943,0,0,1,.118-1.272,10.267,10.267,0,0,0,.121-1.222c0-.69-.207-1.036-.615-1.036q-.756,0-1.319,1.129-5.51,11.117-13.232,11.113a5.416,5.416,0,0,1-4.706-2.73,6.925,6.925,0,0,1-1.365-3.674,12.018,12.018,0,0,1,.75-2.873c.379-1.129.282-1.7-.282-1.7q-.284,0-3.859,3.816-3.865,4.1-4.335,4.474a17.484,17.484,0,0,1-11.017,4.192q-7.585,0-7.583-5.038a12.712,12.712,0,0,1,.754-3.909,3.106,3.106,0,0,0,.19-.943C393.882,527.462,393.66,527.194,393.221,527.194Zm-41.059,8.994q-9.418-4.476-10.642-10.545-.707-3.58-1.744-14.222t-1.883-14.833q-1.367-6.92-3.484-6.922-1.79,0-4.849,5.417a67.33,67.33,0,0,1-8.1,11.96q-4.712,5.226-13.94,10.5-8.523,4.9-8.9,5.464H314.82a35.706,35.706,0,0,0,10.313-10.5,69.986,69.986,0,0,0,4.613-9.37q1.742-4.052,3.016-4.049,1.319,0,2.494,11.3Q337,526.394,337.611,529.6a19.635,19.635,0,0,0,3.956,9.041q3.393,4,10.6,6.972Zm9.981,28.394a14.193,14.193,0,0,0-6.4-5.532q-3.907-1.672-17.892-2.237-19.259-.708-27.687-1.744a52.15,52.15,0,0,1,17.281-13.043,103.739,103.739,0,0,1,13.843-5.65Q344.2,535.391,354,532.7a2.139,2.139,0,0,0,1.508-1.272l2.308-6.168a4.4,4.4,0,0,0,.329-1.272c0-.5-.908-.69-2.73-.565q-3.72.236-8.051.236-3.581,0-14.058-.329t-18.482-.329H298.625q-1.651,4.282-2.637,7.44a3.586,3.586,0,0,0-.286,1.083q0,.75,3.345.754,6.545,0,14.526.3t16.13.307a60.74,60.74,0,0,0-24.346,21.519,12.8,12.8,0,0,0-2.494-.329c-.758,0-1.133.157-1.133.468,0,.411.754,1.068,2.262,1.98a55.862,55.862,0,0,0-7.065,26.933q0,30.322,27.4,30.324,15.207,0,27.783-11.914,12.757-12.146,12.761-27.308a18.3,18.3,0,0,0-2.734-9.984Zm-5.224,25.1A46.986,46.986,0,0,1,343.357,599.8a38.666,38.666,0,0,1-17.567,4.57q-25.756,0-25.754-22.934A39.117,39.117,0,0,1,303,566.984a38.32,38.32,0,0,1,4.474-8.616,55.9,55.9,0,0,0,14.5,5.649q3.908.9,14.787,1.176,10.4.284,14.833,1.555a15.561,15.561,0,0,1,8.144,5.228,11.412,11.412,0,0,1,2.684,7.2h0Q362.425,583.656,356.918,589.679Zm58.468-76.932a30.88,30.88,0,0,0-3.956-2.966,15.47,15.47,0,0,0-3.438-2.026c-.222,0-.425.19-.611.565l-3.016,6.168q-.188.424,0,.568,3.768,2.353,7.3,5.035c.282.222.55.111.8-.329a42.812,42.812,0,0,0,2.587-5.038q3.913,2.546,7.015,4.853c.286.186.55.075.8-.332q3.152-5.087,3.152-6.686,0-.424-3.577-2.873t-4.049-2.448c-.221,0-.425.189-.611.565l-2.4,4.946Zm-1.179-4.567q-3.532-2.685-7.3-5.039-.188-.139,0-.568l3.012-6.168c.189-.375.393-.565.611-.565q.472,0,4.052,2.448t3.577,2.873q0,1.6-3.155,6.686c-.25.443-.518.55-.8.332Zm-104.551,1.63q3.152-5.087,3.155-6.686c0-.286-1.2-1.24-3.58-2.873s-3.734-2.448-4.049-2.448c-.218,0-.425.186-.611.564l-3.016,6.168c-.125.282-.125.472,0,.565q3.768,2.353,7.3,5.039C309.135,510.356,309.4,510.245,309.656,509.809Zm64.364-127.532c-.282,0-.532.375-.754,1.129a53.565,53.565,0,0,0-1.837,6.639,5.022,5.022,0,0,0,.85,2.637q1.881,3.061,1.883,4.613-1.742,2.643-7.2,2.637v9.42q4.047,0,7.014-3.909,3.484-4.615,3.484-12.664a20.91,20.91,0,0,0-2.262-8.948Q374.494,382.278,374.021,382.278Zm-7.065,17.656a4.954,4.954,0,0,1-4.517-2.448,8.424,8.424,0,0,1-1.226-4.617,6.7,6.7,0,0,1,.211-1.433,6.592,6.592,0,0,0,.211-1.344.789.789,0,0,0-.893-.893,2.356,2.356,0,0,0-1.647.8q-7.3,7.306-9.369,8.716a20.53,20.53,0,0,1-12.1,3.67v9.42q6.593,0,12.571-5.135a84.773,84.773,0,0,0,6.075-6.639,2.072,2.072,0,0,1,1.508-.893c.315,0,.472.172.472.518q.327,9.7,8.709,9.7Zm-41.444-68.556q-1.506-14.033-4.52-19.872c-.314-.629-.565-.943-.754-.943s-.439.375-.754,1.133a20.2,20.2,0,0,0-1.883,6.872,92.238,92.238,0,0,1,3.72,18.271q.611,5.982,1.411,32.49.756,24.394,1.651,29.384,1.41,8.051,5.414,11.017,2.776,2.074,7.861,2.073v-9.42a9.866,9.866,0,0,1-5.131-1.036q-3.2-2.069-4.331-8.662-.381-2.214-1.036-26.7Q326.451,340.087,325.512,331.378ZM314.581,378.64q-.756-1.554-1.179-1.555c-.282,0-.532.379-.754,1.133a50.276,50.276,0,0,0-1.837,6.639,5.96,5.96,0,0,0,.851,2.634q5.269,10.077,5.274,16.434,0,2.353-7.161,7.819a81.589,81.589,0,0,1-17.892,10.216A60.615,60.615,0,0,1,268.762,427q-12.291,0-18.785-8a20.579,20.579,0,0,1-4.853-13.186q0-1.458,2.165-13.279c.189-1.033.125-1.551-.186-1.551s-.643.44-.99,1.315a46.651,46.651,0,0,0-2.873,16.012q0,11.3,4.992,18.55,6.545,9.562,20.626,9.562,13.277,0,28.487-8.526,12.1-6.732,18.267-13.983,4.288-4.99,4.285-18.835a16.643,16.643,0,0,0,3.627.472q8.2,0,13.232-9.087,3.152,5.6,6.922,5.6a9.141,9.141,0,0,0,8.287-4.992,18.985,18.985,0,0,0,2.494-9.984,10.54,10.54,0,0,0-1.976-6.354c-.407-.568-.74-.85-.99-.85-.315,0-.6.457-.847,1.365a54.107,54.107,0,0,0-1.694,6.454q2.069,3.484,2.072,3.623-.992,1.7-4.145,1.7a6.763,6.763,0,0,1-4.427-1.508,3.912,3.912,0,0,1-1.694-3.059,24.573,24.573,0,0,0,.943-3.627,3.652,3.652,0,0,0,.139-.943c0-.69-.222-1.036-.661-1.036q-.563,0-1.411.943-2.353,3.72-4.756,7.44a11.492,11.492,0,0,1-9.559,4.9,10.855,10.855,0,0,1-7.958-2.873A17.219,17.219,0,0,1,314.581,378.64Zm55.163-1.765q3.152-5.087,3.152-6.689,0-.423-3.577-2.869t-4.049-2.451q-.332,0-.611.568l-3.016,6.168c-.125.282-.125.468,0,.565q3.768,2.353,7.3,5.038C369.225,377.422,369.49,377.311,369.743,376.875ZM343.757,418.03A15.378,15.378,0,0,0,340.32,416c-.218,0-.422.189-.611.565l-3.012,6.168c-.125.286-.125.472,0,.568q3.768,2.353,7.3,5.035c.282.222.55.111.8-.329a43.342,43.342,0,0,0,2.591-5.039q3.908,2.546,7.015,4.853.423.279.8-.332,3.152-5.081,3.152-6.686,0-.423-3.577-2.873t-4.052-2.448c-.218,0-.422.189-.608.565l-2.4,4.946A30.278,30.278,0,0,0,343.757,418.03Zm264.865,160.4q10.817-9.922,14.122-16.1,4.631-8.378,7.944-28.895A87.689,87.689,0,0,0,632,518.207q0-37.049-21.833-52.272-9.268-6.625-59.118-30.224Q510.244,416.522,485.1,391.6q22.057,1.319,25.368-2.43,2.857-3.307-8.165-9.705c-1.472-.736-3.088-1.54-4.853-2.426L452.01,355.2q-5.73-2.868-7.054-1.326c-.593.736-.883,2.351-.883,4.853v26.69q0,10.367,5.074,13.24,9.037,5.29,11.91,9.041a212.826,212.826,0,0,0,52.057,50.735Q530.1,469.905,564.509,486q31.544,15,45.661,25.811,11.471,8.828,11.47,14.78,0,3.967-4.635,8.383-11.9,11.46-87.57,60.655Q446.059,649.9,416.719,649.894q-13.454,0-22.72-8.376-11.031-9.932-11.027-28.459c0-16.466-1.465-17.956,7.508-49.574a40.843,40.843,0,0,0,1.987-10.145c0-1.322-.3-2.058-.883-2.2q-1.994,0-6.178,10.363c-12.939,31.911-13.465,40.755-13.465,71.636q0,60.88,46.1,60.88,24.919,0,105.877-54.266Q588.988,596.52,608.622,578.426Zm-217.8-147.875q2.31,32.675,2.308,37.2a79.37,79.37,0,0,1-.422,8.755,13.492,13.492,0,0,0-.143,3.581q.139.8.8-.329a25.2,25.2,0,0,0,1.129-2.448A51.585,51.585,0,0,0,397.837,458q0-3.581-2.072-32.114c-1.383-19.021-2.073-76.764-2.073-77.046q0-1.222.472-.565,4,4.567,4,2.5a8.024,8.024,0,0,0-.375-1.98q-.472-1.742-3.345-9.277-2.734-7.252-3.484-8.851c-.254-.532-.472-.8-.661-.8-.157,0-.343.25-.565.754q-2.637,6.169-2.637,7.815a17.07,17.07,0,0,1,1.415,7.44C388.514,348.481,389.283,408.764,390.819,430.551Zm-80.588-.45q3.425-3.152,6.747-3.155a4.659,4.659,0,0,1,1.322.3,4.825,4.825,0,0,0,1.462.3,5.652,5.652,0,0,0,3.959-2.112q2.417,1.174,3.559.4a3.734,3.734,0,0,0,.922-1.68,7.388,7.388,0,0,0,.489-2.416,2.513,2.513,0,0,0-.607-1.847c-.086-.089-.357.247-.8,1.008a1.315,1.315,0,0,0-.3.972,7.389,7.389,0,0,1,.3,1.276c-.022.089-.122.136-.3.136-1.7,0-2.483-.172-2.351-.5a4.626,4.626,0,0,0,.4-1.444c0-.2-.057-.3-.168-.3-.225,0-.482.225-.772.672q-.606.943-1.208,1.88a2.477,2.477,0,0,1-2.015.94,5.118,5.118,0,0,1-1.612-.318,5.031,5.031,0,0,0-1.508-.318,8.084,8.084,0,0,0-4.8,1.744,21.966,21.966,0,0,0-3.659,3.459q-2.482,2.916-3.859,4.259a34.886,34.886,0,0,1-4.027,2.787,6.406,6.406,0,0,0-1.376.94q0,.032.064.032a15.248,15.248,0,0,0,2.115-.536,9.34,9.34,0,0,0,3.02-1.576Q307.748,432.554,310.232,430.1Zm68.013-87.613a7.472,7.472,0,0,0,1.365-2.494c.189-.44.221-.708.1-.8-.1-.064-.393,0-.9.186q-19.35,7.161-37.1,13.75a20.223,20.223,0,0,0-1.6,4.192Q362,348.466,378.244,342.488Zm-131,41.133q0-3.463,2.834-12.082a12.387,12.387,0,0,0,.625-2.326.053.053,0,0,0-.057-.057,7.8,7.8,0,0,0-1.3,2.1,33.964,33.964,0,0,0-4.37,15.827q0,6.121,3.688,6.125,3.463,0,4.992-8.337a1.331,1.331,0,0,0,0-.568c0-.115-.057-.132-.168-.057a1.965,1.965,0,0,0-.343.511q-1.871,3.575-3.345,3.573Q247.243,388.328,247.243,383.622Zm20.683-18.614a10.955,10.955,0,0,0-1.411,2.794q0,.922,1.687,2.455a4.733,4.733,0,0,0,2.734,1.537q.922,0,1.1-.429a.836.836,0,0,1,.861-.432q.981,0,3.316,5.864t2.333,7.894c0,.858.164,1.286.49,1.286.368,0,.822-.468,1.354-1.411a26.948,26.948,0,0,0,2.023-7.122q2.09-11.6,4.545-11.606a2.861,2.861,0,0,1,2.151,1.322q1.04,1.319,1.347,1.319.74,0,1.29-1.719a7.017,7.017,0,0,0,.432-2.087,5.048,5.048,0,0,0-1.229-2.7q-1.415-1.9-2.826-1.9-2.76,0-5.1,5.585a102.3,102.3,0,0,0-2.7,11.731c-.161.45-.268.715-.307.8q-.059.188-.182,0a7.915,7.915,0,0,0-.125-.8,27.128,27.128,0,0,0-3.838-10.656q-2.728-4.079-6.168-4.081Q269.34,362.646,267.926,365.008ZM448.555,504.164q-1.367.847-2.73,1.744a6.646,6.646,0,0,1-2.73,1.176,5.227,5.227,0,0,1-2.258-.75q-1.415-.756-1.415-1.462,0-.611,1.154-1.411a3.693,3.693,0,0,1,2-.8q1.035,0,1.694,1.369c.189.375.361.422.522.139a6.346,6.346,0,0,0,1.129-3.152q0-2.358-2.072-2.358-2.3,0-5.792,4.192a6.723,6.723,0,0,0-1.79,4.238q0,1.838,3.391,3.063-2.728,2.117-2.873,2.869l-.329,2.026c.032.189.079.3.143.329.343-.25.643-.454.893-.611q8.71-5.934,11.3-7.533a5.47,5.47,0,0,0,1.129-2.591c.125-.6.125-.925,0-.99C449.766,503.584,449.309,503.756,448.555,504.164Zm-122.05-60.78a3.637,3.637,0,0,0-2.712,1.579l-1.7,2.862a2.126,2.126,0,0,0-.329.743c0,.157.439.218,1.311.179l2.744-.118q7.15,0,7.15.954a.353.353,0,0,1-.118.239,39.228,39.228,0,0,1-4.71,2.741,47.987,47.987,0,0,0-5.124,2.919,8.105,8.105,0,0,0-.9.747c0,.057.429-.021,1.283-.239q7.209-1.908,8.494-2.8a19.642,19.642,0,0,0,4.2-4.5q1.967-2.744,1.965-3.516,0-1.908-8.255-1.908A27.329,27.329,0,0,0,326.505,443.383Zm-49.8,15.4c.057,0,.275-.247.657-.74s.675-.743.886-.743a2.011,2.011,0,0,1,1.372.715,7.359,7.359,0,0,0-2.373,1.026,4.167,4.167,0,0,0-1.315,3.4,52.451,52.451,0,0,0,.972,5.36,40.235,40.235,0,0,1,.972,7.987q0,2,.172,2c.057-.021.132-.232.229-.632a16.492,16.492,0,0,0,.372-3.427A37.017,37.017,0,0,0,276.71,462.1a5.6,5.6,0,0,1,2.43-1.344q1.4-.37,2.8-.772c.114-.036.314-.375.6-1.011a3.472,3.472,0,0,0,.4-1.186,3.959,3.959,0,0,0-1.615-2.044,5.078,5.078,0,0,0-2.383-1.272,13.974,13.974,0,0,0,.972-3.345q.97-5.4,2.112-5.4a1.332,1.332,0,0,1,1,.615c.325.411.532.615.629.615.229,0,.429-.268.6-.8a3.267,3.267,0,0,0,.2-.972,2.339,2.339,0,0,0-.572-1.258,1.769,1.769,0,0,0-1.315-.886q-1.286,0-2.369,2.6a47.249,47.249,0,0,0-1.258,5.46c-.079.207-.125.332-.143.368q-.032.086-.086,0a3.237,3.237,0,0,0-.057-.368,12.655,12.655,0,0,0-1.787-4.96,3.544,3.544,0,0,0-2.873-1.9c-.114,0-.389.368-.825,1.1a5.106,5.106,0,0,0-.661,1.3c0,.286.264.668.786,1.144a2.22,2.22,0,0,0,1.272.715c.286,0,.457-.068.515-.2s.193-.2.4-.2q.429,0,1.458,2.512a24.417,24.417,0,0,1,1.344,3.974q-1.345.574-1.658,3.573C276.588,458.574,276.613,458.781,276.71,458.781ZM334.3,592.38a35.653,35.653,0,0,1-10.077,1.6q-5.087,0-5.085-2.266a4.277,4.277,0,0,1,1.083-2.405q2.493-2.6,4.988-5.146,3.532-3.73,3.531-5.76,0-2.691-5.507-2.691a5.732,5.732,0,0,0-3.627.95,7.513,7.513,0,0,0-1.93,3.045c-.093.254-.111.415-.046.479s.2.043.425-.05a6.288,6.288,0,0,1,2.776-.75,13.133,13.133,0,0,1,4.331.7q.9.332.329.947-2.728,2.878-5.414,5.757a10.184,10.184,0,0,0-2.73,6.518,3.781,3.781,0,0,0,1.458,3.045,5.742,5.742,0,0,0,3.766,1.2q7.392,0,12.1-4.238c.754-.661,1.129-1.051,1.129-1.176S335.306,592.1,334.3,592.38Zm203.609-61.995a7.4,7.4,0,0,0,1.365-2.5c.189-.44.222-.7.1-.8-.1-.064-.393,0-.9.186q-19.35,7.156-37.1,13.747a20.23,20.23,0,0,0-1.6,4.192Q521.669,536.365,537.912,530.385Zm-23.77-16.331c-.225-.236-.407-.261-.55-.082l-1.608,2.062a.7.7,0,0,0-.011.951q5.789,6.888,4.9,12.828a16.69,16.69,0,0,1-.654,2.937c-.325.847-.35,1.29-.064,1.333.225.036.529-.268.911-.9a13.38,13.38,0,0,0,1.673-4.824A15.868,15.868,0,0,0,514.141,514.055Zm-171.585-181.2q0-2.868,2.355-10.027a10.571,10.571,0,0,0,.518-1.933.043.043,0,0,0-.047-.047,6.371,6.371,0,0,0-1.083,1.744,28.212,28.212,0,0,0-3.627,13.136q0,5.087,3.063,5.085,2.868,0,4.142-6.922a1.1,1.1,0,0,0,0-.468c0-.1-.047-.111-.139-.05a1.611,1.611,0,0,0-.282.425q-1.555,2.964-2.78,2.966Q342.558,336.763,342.557,332.854Zm14.126,297.522q0-2.873,2.355-10.031a10.563,10.563,0,0,0,.518-1.933.043.043,0,0,0-.046-.047,6.369,6.369,0,0,0-1.083,1.744,28.169,28.169,0,0,0-3.627,13.136q0,5.087,3.063,5.089,2.868,0,4.142-6.925a1.106,1.106,0,0,0,0-.468c0-.1-.046-.111-.139-.05a1.777,1.777,0,0,0-.286.425c-1.033,1.979-1.962,2.966-2.777,2.966Q356.684,634.282,356.682,630.376Zm68.76,3.216q0-2.873,2.355-10.031a10.485,10.485,0,0,0,.518-1.93.041.041,0,0,0-.046-.046,6.238,6.238,0,0,0-1.083,1.74,28.182,28.182,0,0,0-3.627,13.139q0,5.082,3.059,5.085,2.873,0,4.145-6.922a1.119,1.119,0,0,0,0-.472c0-.093-.047-.111-.139-.047a1.649,1.649,0,0,0-.286.422c-1.033,1.98-1.962,2.969-2.777,2.969Q425.444,637.5,425.442,633.592Zm-7.329-226.343a7.462,7.462,0,0,0,1.365-2.5c.189-.439.222-.7.1-.8-.1-.061-.393,0-.9.189q-19.35,7.156-37.1,13.747a20.233,20.233,0,0,0-1.6,4.192Q401.87,413.229,418.113,407.249ZM410.72,420.32a3.513,3.513,0,0,0-2.619,1.522l-1.64,2.762a2.065,2.065,0,0,0-.314.722q0,.23,1.265.172l2.648-.114q6.9,0,6.9.922a.334.334,0,0,1-.114.229,38.157,38.157,0,0,1-4.545,2.648A46.087,46.087,0,0,0,407.353,432a8.721,8.721,0,0,0-.865.718c0,.057.415-.018,1.24-.229q6.957-1.844,8.2-2.705a18.9,18.9,0,0,0,4.059-4.345q1.9-2.648,1.9-3.395,0-1.844-7.969-1.84A25.762,25.762,0,0,0,410.72,420.32Zm-2.326-48.42c-.225-.232-.408-.261-.55-.082l-1.608,2.062a.7.7,0,0,0-.011.951q5.789,6.888,4.906,12.828a17.4,17.4,0,0,1-.654,2.941c-.329.843-.35,1.29-.068,1.333.225.032.529-.268.915-.908a13.353,13.353,0,0,0,1.669-4.824A15.874,15.874,0,0,0,408.393,371.9ZM387.16,481.126a7.6,7.6,0,0,0,1.365-2.5c.186-.436.218-.7.093-.8-.093-.064-.393,0-.9.186q-19.35,7.161-37.1,13.751a20.279,20.279,0,0,0-1.6,4.192Q370.914,487.1,387.16,481.126Z" transform="translate(-220.74 -303.06)" fill="#f9f9f9" opacity="0.32"/>
    </g>
    <g transform="matrix(1, 0, 0, 1, -22.5, -7.5)" filter="url(#Path_27895)" style="mix-blend-mode: hard-light;isolation: isolate">
      <path id="Path_27895-2" data-name="Path 27895" d="M430.936,404.844a16.7,16.7,0,0,0-1.377-7.256q0-1.6,2.568-7.622c.216-.491.4-.735.551-.735.185,0,.4.261.645.781q.732,1.563,3.4,8.632,2.8,7.349,3.258,9.047a7.708,7.708,0,0,1,.369,1.931q0,2.018-3.9-2.436-.46-.643-.46.551c0,.275.673,18.732,2.021,37.285s2.021,21.98,2.021,24.308a50.292,50.292,0,0,1-3.262,18.826,24.146,24.146,0,0,1-1.1,2.387c-.429.735-.686.844-.781.324a13.266,13.266,0,0,1,.136-3.492,76.562,76.562,0,0,0,.415-8.542c0-2.938-.749-8.019-2.251-29.266S430.936,407.385,430.936,404.844Zm-5.043,39.028a12.127,12.127,0,0,0-.917-4.778q-.92-2.159-2.115-2.157-1.1,0-2.892,3.443a59.941,59.941,0,0,1-3.673,6.43q-2.619,3.445-5.646,3.443v9.186a6.573,6.573,0,0,0,5.37-3.032,41.386,41.386,0,0,0,3.582-6.7q1.652-3.534,2.983-3.764a6.382,6.382,0,0,1,.505,3.168q0,3.168.6,3.168.962,0,1.652-3.812A26.079,26.079,0,0,0,425.893,443.872ZM408.57,459.262a6.734,6.734,0,0,0,2.342.321V450.4a6.237,6.237,0,0,1-4.733-1.6,14.337,14.337,0,0,1-1.837-3.307q-.685-1.516-1.147-1.516c-.275,0-.523.366-.735,1.1a51.341,51.341,0,0,0-1.791,6.475,6.359,6.359,0,0,0,.826,2.572,36.339,36.339,0,0,1,4.363,16.348q-1.192,2.891-6.935,7.576a112.056,112.056,0,0,1-18,11.664q-8.818,4.778-22.136,10.424c-.355.153-17.289,7.82-17.289,9.7.028.094.181.139.46.139a41.359,41.359,0,0,0,4.314-.551c2.328-.366-.54.171,8.521-2.035q12.812-3.121,13.271-3.122,1.84,0,13.229-6.245,12.99-7.073,20.2-13.361a19.844,19.844,0,0,0,6.384-11.71Q408.564,469.319,408.57,459.262Zm-30.134-17.815a33.288,33.288,0,0,0-6.43-4.224,42.953,42.953,0,0,1-8.082-6.064,8.994,8.994,0,0,0,2.2.275q2.206,0,2.206-.826c0-.429-.523-.948-1.561-1.561l-8.632-4.409a5.415,5.415,0,0,0-1.655-.641c-.307,0-.523.429-.641,1.282a17.792,17.792,0,0,0-.46,6.705,22.917,22.917,0,0,0-5.053,6.8A25.567,25.567,0,0,0,347.392,451a14.154,14.154,0,0,0,1.836,6.8,17.691,17.691,0,0,1-7.712,1.471v9.183a20.363,20.363,0,0,0,7.987-2.021,30.242,30.242,0,0,0,7.622-4.593A46.392,46.392,0,0,0,371,463.949a14.682,14.682,0,0,0,6.52-1.1,9.392,9.392,0,0,0,2.847-3.213A17,17,0,0,0,382.293,451a12.778,12.778,0,0,0-3.858-9.552Zm-20.575,11.664a13.437,13.437,0,0,1-5.05-1.837q-2.938-1.835-2.938-4.318,0-2.938,3.077-6.566t5.189-3.628q1.375,0,3.213,3.028a11.984,11.984,0,0,1,2.021,6.154q0,3.857-5.513,7.165Zm15.982,2.662a41.41,41.41,0,0,1-9.918-1.376,34.59,34.59,0,0,0,2.663-11.939,30.664,30.664,0,0,0,6.614,4.593q4.407,2.567,5.325,3.854a6.48,6.48,0,0,1,1.2,2.938h0Q379.721,455.777,373.842,455.773ZM290.406,466.88a14.465,14.465,0,0,0,.92,5.51.659.659,0,0,0,.551.185,5.3,5.3,0,0,0,2.321-.735c.93-.491,1.4-.948,1.4-1.377a7.2,7.2,0,0,1-2.206-4.733q0-2.708,3.673-6.52,3.4-3.581,5.144-3.583c.795,0,1.683,1.122,2.663,3.353a21.148,21.148,0,0,0,3.858,6.294q3.387,3.34,9.239,3.353l23.544-.178v-9.183l-23.555.174a9.743,9.743,0,0,1-7.761-3.352,25.438,25.438,0,0,1-3.443-6.29q-1.422-3.351-2.708-3.353-3.675,0-7.991,5.6A28.242,28.242,0,0,0,290.406,466.88Zm23.035,13.574a14.919,14.919,0,0,0-2.276-8.656,7.128,7.128,0,0,0-6.175-3.283,22.347,22.347,0,0,0-9.277,1.882l-4.269,1.927q-7.438,5.327-7.44,19.794,0,7.9,6.339,31.18a82.334,82.334,0,0,1,.962,8.772q.319,4.731.735,4.729t1.056-4.823q.69-5.185-1.376-15.933-1.422-5.97-2.847-11.939-2.389-10.24-2.387-14.281,0-8.218,6.932-11.344a24.328,24.328,0,0,0,4.729,8.127q3.769,4.088,8.266,4.088a5.871,5.871,0,0,0,5.1-2.893,12.975,12.975,0,0,0,1.931-7.346Zm-7.3-2.941q2.389,1.15,2.391,2.572,0,1.014-1.837.92a7.634,7.634,0,0,1-6.66-3.858h0Q304.3,476.639,306.137,477.512ZM421.2,473.707q3.074-4.956,3.077-6.52,0-.413-3.492-2.8T416.833,462c-.216,0-.411.185-.6.551l-2.938,6.015q-.183.413,0,.554,3.675,2.295,7.12,4.91C420.69,474.243,420.948,474.135,421.2,473.707Zm-88.517-.571a14.909,14.909,0,0,0-3.353-1.976c-.213,0-.411.185-.6.551l-2.938,6.018c-.122.272-.122.46,0,.551q3.675,2.295,7.12,4.91c.275.216.533.108.777-.317a42.821,42.821,0,0,0,2.527-4.914q3.811,2.478,6.844,4.729c.275.185.533.077.781-.324q3.074-4.956,3.077-6.52,0-.413-3.492-2.8t-3.949-2.387q-.324,0-.6.554l-2.345,4.82A29.6,29.6,0,0,0,332.678,473.135Zm187.043,77.738q-3.947-7.167-8.817-7.165-3.67,0-7.071,4.043a14.978,14.978,0,0,0-3.673,10.012q0,7.344,10.838,7.346,5.05,0,7.071,1.1a6.148,6.148,0,0,1,2.387,2.572q0,1.741-5.234,5.785-6.89,5.421-20.115,12.584-8.907,4.773-22.133,10.378-19.2,8.171-20.941,9-5.05,2.295-5.05,2.572c.059.122.212.185.46.185q.826,0,4.5-.551,3.4-.549,16.989-3.858,12.765-3.121,13.319-3.123,2.206,0,15.152-7.437,14.694-8.27,20.572-14.881,5.144-5.876,5.144-16.714a24.887,24.887,0,0,0-3.4-11.849Zm-14.877,3.213q0-2.2,4.039-2.2,2.666,0,5.879,4.314a21.758,21.758,0,0,1-4.314.46h0Q504.845,556.659,504.845,554.087Zm-21.572-15.372q2.253,31.871,2.251,36.278a77.46,77.46,0,0,1-.415,8.542,13.106,13.106,0,0,0-.136,3.492q.136.779.781-.324a24.546,24.546,0,0,0,1.1-2.387,50.283,50.283,0,0,0,3.262-18.829q0-3.487-2.021-31.316c-1.349-18.554-2.021-43.387-2.021-43.663q0-1.2.46-.554,3.9,4.459,3.9,2.436a7.7,7.7,0,0,0-.37-1.931q-.46-1.694-3.262-9.047-2.661-7.068-3.394-8.632c-.247-.519-.46-.781-.645-.781-.153,0-.338.247-.551.735q-2.572,6.017-2.572,7.622a16.7,16.7,0,0,1,1.38,7.256C481.025,490.152,481.771,517.471,483.273,538.715ZM469.6,551.435q-3.952-7.162-8.817-7.161-3.675,0-7.074,4.039a15,15,0,0,0-3.673,10.012q0,7.35,10.838,7.346,5.05,0,7.071,1.1a6.164,6.164,0,0,1,2.391,2.568q0,1.746-5.238,5.788-6.884,5.421-20.112,12.581-8.913,4.773-22.133,10.378-19.2,8.176-20.941,9-5.05,2.295-5.053,2.572c.063.122.216.185.46.185q.826,0,4.5-.551,3.4-.554,16.992-3.861,12.765-3.121,13.316-3.122,2.206,0,15.156-7.437,14.689-8.27,20.572-14.877Q473,574.12,473,563.284a24.9,24.9,0,0,0-3.4-11.849Zm-14.881,3.217q0-2.206,4.042-2.206,2.661,0,5.879,4.318a22.071,22.071,0,0,1-4.318.46h0Q454.724,557.223,454.724,554.651Zm-12.765-1.328a12.109,12.109,0,0,0-.92-4.774q-.92-2.159-2.112-2.161-1.1,0-2.9,3.443a60.135,60.135,0,0,1-3.673,6.433q-2.614,3.445-5.649,3.443v9.183a6.566,6.566,0,0,0,5.374-3.028,41.162,41.162,0,0,0,3.583-6.708c1.1-2.356,2.094-3.61,2.987-3.764a6.447,6.447,0,0,1,.505,3.171c0,2.112.2,3.164.6,3.164q.962,0,1.652-3.809A25.886,25.886,0,0,0,441.959,553.324Zm-22.394,37.885a16.3,16.3,0,0,0,3.858-8.266,69.545,69.545,0,0,0,1.1-14.326,6.99,6.99,0,0,0,2.3.275v-9.183q-3.215,0-4.684-1.561a13.353,13.353,0,0,1-1.837-3.307q-.737-1.469-1.2-1.471c-.244,0-.491.338-.732,1.011a56.437,56.437,0,0,0-1.746,6.52,6.359,6.359,0,0,0,.826,2.572,36.68,36.68,0,0,1,4.314,16.348q-1.1,2.483-7.621,7.531a81.379,81.379,0,0,1-16.9,10.012,55.375,55.375,0,0,1-21.952,4.959q-12.034,0-18.369-7.806a20.192,20.192,0,0,1-4.68-12.859,32.7,32.7,0,0,1,.917-6.245q.554-2.384,1.1-4.774.277-1.563-.185-1.561c-.307,0-.61.4-.917,1.192a45.832,45.832,0,0,0-2.3,9,44.3,44.3,0,0,0-.551,6.886,23.582,23.582,0,0,0,1.286,8.451q6.519,16.9,23.788,16.9,12.028,0,25.806-7.165A79.113,79.113,0,0,0,419.565,591.208Zm15.386-15.5a14.9,14.9,0,0,0-3.353-1.972c-.213,0-.415.181-.6.551l-2.941,6.015c-.122.275-.122.46,0,.551q3.68,2.3,7.12,4.914c.275.212.537.108.781-.321a42.864,42.864,0,0,0,2.527-4.914q3.811,2.478,6.841,4.729c.275.185.533.077.781-.321q3.079-4.961,3.077-6.52,0-.413-3.488-2.8t-3.948-2.387c-.216,0-.415.181-.6.551l-2.342,4.82A30.2,30.2,0,0,0,434.951,575.711Zm-38.062-5.963q3.079-4.961,3.077-6.52,0-.413-3.488-2.8t-3.948-2.391c-.216,0-.415.185-.6.551l-2.938,6.018c-.122.275-.122.46,0,.551q3.675,2.295,7.116,4.914C396.383,570.281,396.644,570.177,396.888,569.748Zm-65.458-29.455a15,15,0,0,0-3.352-1.976c-.213,0-.411.185-.6.551l-2.938,6.015c-.122.275-.122.46,0,.551q3.675,2.3,7.12,4.914c.272.216.533.108.777-.32a42.545,42.545,0,0,0,2.527-4.914q3.811,2.483,6.844,4.729c.272.185.533.077.777-.321q3.079-4.961,3.077-6.52,0-.413-3.488-2.8t-3.952-2.387c-.213,0-.411.185-.592.551l-2.345,4.823A29.533,29.533,0,0,0,331.431,540.293Zm134.288-47.576q2.248,31.871,2.251,36.278a77.441,77.441,0,0,1-.415,8.542,13.082,13.082,0,0,0-.136,3.489c.091.519.352.415.781-.321a25.37,25.37,0,0,0,1.1-2.387,50.3,50.3,0,0,0,3.258-18.826q0-3.492-2.018-31.319t-2.021-28.242c0-.8.153-.979.46-.551q3.9,4.454,3.9,2.432a7.69,7.69,0,0,0-.369-1.927q-.46-1.7-3.259-9.047-2.666-7.073-3.4-8.636c-.244-.519-.456-.781-.641-.781-.153,0-.335.247-.551.735q-2.572,6.017-2.572,7.625a16.63,16.63,0,0,1,1.376,7.256Q463.468,460.849,465.719,492.717ZM453.1,456.885q-1.746-23.879-1.746-24.154c0-.8.153-.979.46-.554q3.858,4.407,3.858,2.387a11.916,11.916,0,0,0-.275-1.927q-.554-1.652-3.307-9-2.666-7.073-3.4-8.632c-.247-.551-.46-.826-.645-.826s-.366.244-.551.735q-2.572,6.059-2.572,7.622a16.648,16.648,0,0,1,1.38,7.256q0,4.867,1.972,32.006c1.317,18.094,1.976,54.365,1.976,56.937q0,6.336-1.2,7.346a13.334,13.334,0,0,1-8.542,3.4v9.183q5.515,0,9.552-6.43,4.773-7.622,4.778-20.938C454.846,508.232,454.261,472.8,453.1,456.885ZM389.507,521.83a2.58,2.58,0,0,0-1.467.69,51.263,51.263,0,0,1-12.263,7.165,38.817,38.817,0,0,1-14.647,3.168,26.834,26.834,0,0,1-11.664-2.251v9.186a27.541,27.541,0,0,0,10.378,2.248,32.842,32.842,0,0,0,13.915-3.443,45.282,45.282,0,0,0,9.733-6.06,2.943,2.943,0,0,1,1.565-.826c.244,0,.366.153.366.457q.366,9.326,9.458,9.322,5.421,0,10.883-4.868a25.315,25.315,0,0,0,5.144-5.921,3.628,3.628,0,0,1,.551-.784c.094,0,.167.261.23.784q1.375,9.273,8.726,9.273,7.209,0,11.159-10.148c.3-.763.582-.763.826,0q2.985,8.772,9.918,8.771V529.41a6.709,6.709,0,0,1-4.983-1.976,7,7,0,0,1-1.952-5.144,10.676,10.676,0,0,1,.115-1.241,10.005,10.005,0,0,0,.118-1.192c0-.672-.2-1.011-.6-1.011q-.737,0-1.286,1.1-5.374,10.841-12.9,10.838a5.282,5.282,0,0,1-4.59-2.663,6.753,6.753,0,0,1-1.331-3.583,11.722,11.722,0,0,1,.732-2.8c.37-1.1.275-1.655-.275-1.655q-.277,0-3.764,3.722-3.769,3.994-4.227,4.363a17.051,17.051,0,0,1-10.744,4.088q-7.4,0-7.4-4.914a12.4,12.4,0,0,1,.735-3.813,3.029,3.029,0,0,0,.185-.92C390.152,522.092,389.936,521.83,389.507,521.83ZM349.465,530.6q-9.185-4.365-10.378-10.284-.69-3.492-1.7-13.87t-1.837-14.466q-1.333-6.749-3.4-6.75-1.746,0-4.729,5.283a65.664,65.664,0,0,1-7.9,11.664q-4.6,5.1-13.595,10.239-8.312,4.778-8.678,5.329h15.794A34.821,34.821,0,0,0,323.105,507.5a68.248,68.248,0,0,0,4.5-9.138q1.7-3.952,2.941-3.948,1.286,0,2.433,11.023,1.7,15.609,2.3,18.732a19.149,19.149,0,0,0,3.858,8.817q3.309,3.9,10.333,6.8Zm9.734,27.691a13.842,13.842,0,0,0-6.245-5.395q-3.811-1.631-17.449-2.182-18.782-.69-27-1.7a50.861,50.861,0,0,1,16.853-12.72,101.177,101.177,0,0,1,13.5-5.51q2.844-.962,12.4-3.583a2.087,2.087,0,0,0,1.471-1.241l2.251-6.015a4.29,4.29,0,0,0,.321-1.241c0-.488-.885-.673-2.662-.551q-3.628.23-7.852.23-3.492,0-13.71-.321t-18.024-.321H297.254q-1.61,4.176-2.572,7.256a3.5,3.5,0,0,0-.279,1.056c0,.488,1.087.735,3.262.735q6.383,0,14.166.3t15.731.3a59.236,59.236,0,0,0-23.743,20.986,12.48,12.48,0,0,0-2.433-.321c-.739,0-1.1.153-1.1.456,0,.4.735,1.042,2.206,1.931a54.48,54.48,0,0,0-6.89,26.266q0,29.571,26.726,29.573,14.83,0,27.1-11.619,12.441-11.845,12.445-26.632a17.851,17.851,0,0,0-2.666-9.737Zm-5.1,24.475a45.826,45.826,0,0,1-13.225,9.873,37.709,37.709,0,0,1-17.132,4.457q-25.118,0-25.116-22.366a38.15,38.15,0,0,1,2.892-14.1,37.37,37.37,0,0,1,4.363-8.4,54.515,54.515,0,0,0,14.142,5.51q3.811.873,14.421,1.147,10.146.277,14.466,1.516a15.176,15.176,0,0,1,7.942,5.1,11.13,11.13,0,0,1,2.617,7.026h0Q359.474,576.894,354.1,582.768Zm57.02-75.027a30.129,30.129,0,0,0-3.858-2.893,15.084,15.084,0,0,0-3.352-1.976c-.216,0-.415.185-.6.551l-2.941,6.015q-.183.413,0,.554,3.675,2.295,7.116,4.91c.275.216.537.108.784-.321a41.755,41.755,0,0,0,2.523-4.914q3.816,2.483,6.841,4.733c.279.181.537.073.784-.324q3.074-4.961,3.074-6.52,0-.413-3.488-2.8t-3.948-2.387c-.216,0-.415.185-.6.551l-2.342,4.823Zm-1.15-4.454q-3.445-2.619-7.116-4.914-.183-.136,0-.554L405.8,491.8c.185-.366.383-.551.6-.551q.46,0,3.952,2.387t3.488,2.8q0,1.563-3.077,6.52c-.244.432-.505.537-.781.324Zm-101.962,1.589q3.074-4.961,3.077-6.52c0-.279-1.167-1.209-3.492-2.8s-3.642-2.387-3.948-2.387c-.213,0-.415.181-.6.55l-2.941,6.015c-.122.275-.122.46,0,.551q3.675,2.295,7.12,4.914C307.5,505.409,307.765,505.3,308.012,504.876ZM370.783,380.5c-.275,0-.519.366-.735,1.1a52.24,52.24,0,0,0-1.791,6.475,4.9,4.9,0,0,0,.829,2.572q1.835,2.985,1.837,4.5-1.7,2.577-7.026,2.572v9.186q3.947,0,6.841-3.813,3.4-4.5,3.4-12.351a20.393,20.393,0,0,0-2.206-8.726Q371.244,380.5,370.783,380.5Zm-6.89,17.219a4.831,4.831,0,0,1-4.405-2.387,8.215,8.215,0,0,1-1.2-4.5,6.533,6.533,0,0,1,.206-1.4,6.429,6.429,0,0,0,.206-1.31.769.769,0,0,0-.871-.871,2.3,2.3,0,0,0-1.607.777q-7.12,7.125-9.137,8.5a20.022,20.022,0,0,1-11.8,3.579v9.186q6.429,0,12.26-5.008a82.677,82.677,0,0,0,5.924-6.475,2.02,2.02,0,0,1,1.471-.871c.307,0,.46.167.46.505q.319,9.462,8.493,9.458Zm-40.418-66.858q-1.469-13.685-4.409-19.38c-.307-.613-.551-.92-.735-.92s-.429.366-.735,1.1a19.7,19.7,0,0,0-1.837,6.7,89.953,89.953,0,0,1,3.628,17.818q.6,5.834,1.377,31.685.737,23.79,1.61,28.657,1.375,7.852,5.28,10.744,2.708,2.023,7.667,2.021v-9.186a9.621,9.621,0,0,1-5-1.011q-3.121-2.018-4.224-8.447-.371-2.159-1.011-26.036Q324.391,339.356,323.475,330.863Zm-10.661,46.092q-.737-1.516-1.15-1.516c-.275,0-.519.37-.735,1.1a49.036,49.036,0,0,0-1.791,6.475,5.812,5.812,0,0,0,.829,2.568q5.139,9.828,5.144,16.027,0,2.295-6.984,7.625a79.573,79.573,0,0,1-17.449,9.963,59.114,59.114,0,0,1-22.547,4.914q-11.986,0-18.32-7.806a20.069,20.069,0,0,1-4.733-12.859q0-1.422,2.112-12.95c.185-1.007.122-1.513-.181-1.513s-.627.429-.965,1.282a45.5,45.5,0,0,0-2.8,15.616q0,11.019,4.868,18.09,6.383,9.326,20.115,9.326,12.948,0,27.782-8.315,11.8-6.566,17.815-13.637Q318,406.484,318,392.982a16.236,16.236,0,0,0,3.537.46q7.993,0,12.9-8.862,3.074,5.462,6.75,5.464a8.914,8.914,0,0,0,8.082-4.869,18.515,18.515,0,0,0,2.432-9.737,10.279,10.279,0,0,0-1.927-6.2c-.4-.554-.721-.829-.965-.829-.307,0-.582.446-.826,1.331a52.785,52.785,0,0,0-1.652,6.294q2.018,3.4,2.021,3.534-.967,1.657-4.043,1.655A6.6,6.6,0,0,1,340,379.756a3.815,3.815,0,0,1-1.652-2.983,23.983,23.983,0,0,0,.92-3.537,3.562,3.562,0,0,0,.136-.92c0-.673-.216-1.01-.645-1.01q-.549,0-1.376.92-2.295,3.628-4.638,7.256a11.207,11.207,0,0,1-9.322,4.775,10.586,10.586,0,0,1-7.761-2.8A16.794,16.794,0,0,1,312.814,376.955Zm53.8-1.722q3.074-4.961,3.074-6.524,0-.413-3.488-2.8t-3.948-2.391q-.324,0-.6.554l-2.941,6.015c-.122.275-.122.456,0,.551q3.675,2.295,7.116,4.914C366.106,375.766,366.364,375.658,366.611,375.233Zm-25.342,40.136a15,15,0,0,0-3.352-1.976c-.213,0-.411.185-.6.551l-2.938,6.015c-.122.279-.122.46,0,.554q3.675,2.295,7.116,4.91c.275.216.537.108.781-.321a42.271,42.271,0,0,0,2.527-4.914q3.811,2.483,6.841,4.733.413.272.784-.324,3.074-4.956,3.074-6.52,0-.413-3.488-2.8t-3.952-2.387c-.213,0-.411.185-.592.551l-2.345,4.823A29.514,29.514,0,0,0,341.269,415.369ZM599.576,571.794q10.549-9.676,13.772-15.7,4.516-8.171,7.747-28.179a85.522,85.522,0,0,0,1.283-14.846q0-36.132-21.293-50.978-9.038-6.461-57.655-29.476-39.8-18.714-64.315-43.022,21.511,1.286,24.74-2.37,2.786-3.225-7.963-9.465c-1.436-.718-3.011-1.5-4.733-2.366L446.841,354.1q-5.588-2.8-6.879-1.293c-.578.718-.861,2.293-.861,4.732v26.029q0,10.11,4.949,12.912,8.814,5.159,11.615,8.817a207.557,207.557,0,0,0,50.769,49.479Q523,465.96,556.554,481.66q30.763,14.631,44.531,25.172,11.186,8.61,11.187,14.414,0,3.868-4.52,8.176-11.6,11.176-85.4,59.153Q441.037,641.5,412.424,641.493q-13.121,0-22.157-8.169-10.758-9.686-10.754-27.754c0-16.059-1.429-17.512,7.322-48.347a39.828,39.828,0,0,0,1.938-9.894c0-1.289-.289-2.007-.861-2.15q-1.945,0-6.025,10.106c-12.619,31.12-13.131,39.746-13.131,69.862q0,59.373,44.963,59.373,24.3,0,103.255-52.922Q580.428,589.44,599.576,571.794ZM387.165,427.58q2.253,31.866,2.251,36.278a77.413,77.413,0,0,1-.411,8.538,13.159,13.159,0,0,0-.139,3.492q.136.779.781-.321a24.566,24.566,0,0,0,1.1-2.387,50.308,50.308,0,0,0,3.262-18.829q0-3.492-2.021-31.319c-1.349-18.55-2.021-74.863-2.021-75.139q0-1.192.46-.551,3.9,4.454,3.9,2.436a7.825,7.825,0,0,0-.366-1.931q-.46-1.7-3.262-9.047-2.666-7.073-3.4-8.632c-.247-.519-.46-.781-.645-.781-.153,0-.334.244-.551.735q-2.572,6.017-2.572,7.622a16.648,16.648,0,0,1,1.38,7.256C384.918,347.542,385.667,406.333,387.165,427.58Zm-78.592-.439q3.34-3.074,6.579-3.077a4.544,4.544,0,0,1,1.289.3,4.707,4.707,0,0,0,1.425.293,5.512,5.512,0,0,0,3.861-2.06q2.358,1.145,3.471.394a3.642,3.642,0,0,0,.9-1.638,7.205,7.205,0,0,0,.477-2.356,2.45,2.45,0,0,0-.592-1.8c-.084-.087-.349.24-.784.983a1.282,1.282,0,0,0-.293.948,7.2,7.2,0,0,1,.293,1.244c-.021.087-.119.132-.293.132-1.659,0-2.422-.167-2.293-.491a4.512,4.512,0,0,0,.394-1.408c0-.2-.056-.3-.164-.3-.22,0-.471.219-.753.655q-.591.92-1.178,1.833a2.416,2.416,0,0,1-1.966.917,4.993,4.993,0,0,1-1.572-.31,4.906,4.906,0,0,0-1.471-.31,7.884,7.884,0,0,0-4.68,1.7,21.417,21.417,0,0,0-3.568,3.373q-2.42,2.844-3.764,4.154a34.007,34.007,0,0,1-3.927,2.718,6.248,6.248,0,0,0-1.342.917c0,.021.021.031.063.031a14.868,14.868,0,0,0,2.063-.523,9.109,9.109,0,0,0,2.945-1.537Q306.151,429.533,308.573,427.141ZM374.9,341.7a7.286,7.286,0,0,0,1.331-2.432c.185-.429.216-.69.094-.781-.094-.063-.383,0-.875.181q-18.871,6.984-36.184,13.41a19.725,19.725,0,0,0-1.561,4.088Q359.061,347.528,374.9,341.7ZM247.144,381.813q0-3.377,2.764-11.783a12.077,12.077,0,0,0,.61-2.269.051.051,0,0,0-.056-.056,7.615,7.615,0,0,0-1.272,2.046,33.124,33.124,0,0,0-4.262,15.435q0,5.97,3.6,5.973,3.377,0,4.868-8.13a1.3,1.3,0,0,0,0-.554c0-.112-.056-.129-.164-.056a1.918,1.918,0,0,0-.335.5q-1.824,3.487-3.262,3.485Q247.144,386.4,247.144,381.813Zm20.171-18.153a10.683,10.683,0,0,0-1.377,2.725q0,.9,1.645,2.394a4.616,4.616,0,0,0,2.666,1.5q.9,0,1.077-.418a.816.816,0,0,1,.84-.422q.957,0,3.234,5.719t2.276,7.7c0,.836.16,1.254.477,1.254.359,0,.8-.456,1.321-1.377a26.28,26.28,0,0,0,1.973-6.945q2.039-11.317,4.433-11.319a2.79,2.79,0,0,1,2.1,1.289q1.014,1.286,1.314,1.286.721,0,1.258-1.676a6.843,6.843,0,0,0,.422-2.035,4.923,4.923,0,0,0-1.2-2.635q-1.38-1.856-2.757-1.857-2.692,0-4.97,5.447a99.767,99.767,0,0,0-2.635,11.441c-.157.439-.261.7-.3.777q-.057.183-.178,0a7.71,7.71,0,0,0-.122-.777,26.457,26.457,0,0,0-3.743-10.392q-2.661-3.978-6.015-3.98Q268.693,361.356,267.315,363.66ZM443.471,499.37q-1.333.826-2.662,1.7a6.482,6.482,0,0,1-2.663,1.146,5.1,5.1,0,0,1-2.2-.732q-1.38-.737-1.38-1.425,0-.6,1.126-1.377a3.6,3.6,0,0,1,1.951-.784q1.009,0,1.652,1.335c.185.366.352.411.509.136a6.189,6.189,0,0,0,1.1-3.074q0-2.3-2.021-2.3-2.248,0-5.649,4.088a6.556,6.556,0,0,0-1.746,4.133q0,1.793,3.307,2.987-2.661,2.065-2.8,2.8l-.321,1.976c.031.185.077.289.139.321.335-.244.627-.443.871-.6q8.494-5.787,11.023-7.346a5.336,5.336,0,0,0,1.1-2.527c.122-.582.122-.9,0-.965C444.653,498.805,444.207,498.973,443.471,499.37ZM324.443,440.095a3.548,3.548,0,0,0-2.645,1.54l-1.655,2.791a2.073,2.073,0,0,0-.321.725c0,.153.429.212,1.279.174l2.676-.115q6.973,0,6.973.93a.345.345,0,0,1-.115.234,38.26,38.26,0,0,1-4.593,2.673,46.819,46.819,0,0,0-5,2.847,7.909,7.909,0,0,0-.875.728c0,.056.418-.021,1.251-.233q7.031-1.861,8.284-2.732a19.153,19.153,0,0,0,4.1-4.388q1.918-2.676,1.917-3.429,0-1.861-8.05-1.861A26.65,26.65,0,0,0,324.443,440.095Zm-48.562,15.016c.056,0,.268-.241.641-.721s.659-.725.864-.725a1.962,1.962,0,0,1,1.338.7,7.179,7.179,0,0,0-2.314,1,4.064,4.064,0,0,0-1.282,3.318,51.154,51.154,0,0,0,.948,5.227,39.237,39.237,0,0,1,.948,7.789q0,1.95.167,1.952c.056-.021.129-.226.223-.617a16.081,16.081,0,0,0,.362-3.342,36.1,36.1,0,0,0-1.9-11.343,5.457,5.457,0,0,1,2.37-1.31q1.365-.361,2.729-.753c.111-.035.307-.366.585-.986a3.385,3.385,0,0,0,.39-1.157,3.861,3.861,0,0,0-1.575-1.993,4.951,4.951,0,0,0-2.324-1.241,13.631,13.631,0,0,0,.948-3.262q.946-5.264,2.06-5.266a1.3,1.3,0,0,1,.976.6c.317.4.519.6.613.6.223,0,.418-.261.585-.781a3.187,3.187,0,0,0,.2-.948,2.28,2.28,0,0,0-.558-1.227,1.725,1.725,0,0,0-1.283-.864q-1.255,0-2.311,2.537a46.078,46.078,0,0,0-1.227,5.325c-.077.2-.122.324-.139.359q-.031.084-.084,0a3.155,3.155,0,0,0-.056-.359,12.341,12.341,0,0,0-1.742-4.837,3.457,3.457,0,0,0-2.8-1.854c-.111,0-.38.359-.8,1.073a4.981,4.981,0,0,0-.645,1.269c0,.279.258.652.767,1.115a2.165,2.165,0,0,0,1.241.7c.279,0,.446-.066.5-.2s.188-.2.39-.2q.418,0,1.422,2.45a23.818,23.818,0,0,1,1.31,3.875q-1.312.559-1.617,3.485C275.762,454.909,275.787,455.111,275.881,455.111ZM332.048,585.4a34.771,34.771,0,0,1-9.828,1.561q-4.961,0-4.959-2.209a4.171,4.171,0,0,1,1.056-2.345q2.431-2.535,4.865-5.018,3.445-3.638,3.443-5.618,0-2.624-5.37-2.624a5.59,5.59,0,0,0-3.537.927,7.326,7.326,0,0,0-1.882,2.969c-.091.248-.108.4-.045.467s.2.042.415-.049a6.132,6.132,0,0,1,2.708-.732,12.81,12.81,0,0,1,4.224.687q.873.324.321.923-2.661,2.807-5.28,5.614a9.933,9.933,0,0,0-2.662,6.357,3.687,3.687,0,0,0,1.422,2.969,5.6,5.6,0,0,0,3.673,1.174,16.99,16.99,0,0,0,11.8-4.133c.735-.645,1.1-1.025,1.1-1.147S333.027,585.127,332.048,585.4Zm198.568-60.46a7.217,7.217,0,0,0,1.331-2.436c.185-.429.216-.687.094-.777-.094-.063-.383,0-.875.181q-18.871,6.979-36.184,13.407a19.726,19.726,0,0,0-1.561,4.088Q514.775,530.774,530.616,524.943Zm-23.182-15.926c-.22-.23-.4-.254-.537-.08l-1.568,2.011a.682.682,0,0,0-.01.927q5.645,6.717,4.781,12.511a16.272,16.272,0,0,1-.638,2.865c-.317.826-.341,1.258-.063,1.3.22.035.516-.261.889-.882a13.049,13.049,0,0,0,1.631-4.7A15.475,15.475,0,0,0,507.434,509.016ZM340.1,332.3q0-2.8,2.3-9.779a10.3,10.3,0,0,0,.505-1.885.042.042,0,0,0-.045-.045,6.214,6.214,0,0,0-1.056,1.7,27.513,27.513,0,0,0-3.537,12.811q0,4.961,2.987,4.959,2.8,0,4.039-6.75a1.079,1.079,0,0,0,0-.457c0-.094-.045-.108-.136-.049a1.572,1.572,0,0,0-.275.415q-1.516,2.891-2.711,2.892Q340.1,336.115,340.1,332.3Zm13.776,290.156q0-2.8,2.3-9.782a10.3,10.3,0,0,0,.505-1.885.042.042,0,0,0-.045-.045,6.212,6.212,0,0,0-1.056,1.7,27.472,27.472,0,0,0-3.537,12.811q0,4.961,2.987,4.962,2.8,0,4.039-6.754a1.079,1.079,0,0,0,0-.456c0-.094-.045-.108-.136-.049a1.729,1.729,0,0,0-.279.415c-1.007,1.93-1.913,2.892-2.708,2.892Q353.875,626.267,353.874,622.458Zm67.057,3.136q0-2.8,2.3-9.782a10.225,10.225,0,0,0,.505-1.882.04.04,0,0,0-.045-.045,6.083,6.083,0,0,0-1.056,1.7,27.484,27.484,0,0,0-3.537,12.814q0,4.956,2.983,4.959,2.8,0,4.042-6.75a1.091,1.091,0,0,0,0-.46c0-.091-.045-.108-.136-.045a1.608,1.608,0,0,0-.279.411c-1.007,1.931-1.913,2.9-2.708,2.9Q420.933,629.407,420.931,625.594Zm-7.148-220.739a7.275,7.275,0,0,0,1.331-2.436c.185-.429.216-.686.094-.781-.094-.059-.383,0-.875.185Q395.463,408.8,378.15,415.23a19.737,19.737,0,0,0-1.561,4.088Q397.943,410.687,413.783,404.855Zm-7.21,12.748a3.425,3.425,0,0,0-2.555,1.485l-1.6,2.694a2.014,2.014,0,0,0-.307.7q0,.225,1.234.167l2.582-.111q6.733,0,6.733.9a.326.326,0,0,1-.112.223,37.211,37.211,0,0,1-4.433,2.582A44.96,44.96,0,0,0,403.29,429a8.506,8.506,0,0,0-.843.7c0,.056.4-.017,1.209-.223q6.785-1.8,7.994-2.638a18.429,18.429,0,0,0,3.959-4.238q1.85-2.582,1.85-3.311,0-1.8-7.772-1.795A25.111,25.111,0,0,0,406.573,417.6ZM404.3,370.382c-.22-.227-.4-.254-.537-.08l-1.568,2.011a.686.686,0,0,0-.01.927q5.646,6.717,4.785,12.511a16.965,16.965,0,0,1-.638,2.868c-.32.822-.341,1.258-.066,1.3.22.031.516-.261.892-.885a13.022,13.022,0,0,0,1.627-4.7A15.481,15.481,0,0,0,404.3,370.382ZM383.6,476.9a7.408,7.408,0,0,0,1.331-2.436c.181-.425.213-.686.091-.777-.091-.063-.383,0-.875.181q-18.871,6.984-36.184,13.41a19.777,19.777,0,0,0-1.561,4.088Q367.753,482.733,383.6,476.9Z" transform="translate(-215.93 -298.32)" fill="#f9f9f9" opacity="0.94"/>
    </g>
  </g>
</svg>
