<svg xmlns="http://www.w3.org/2000/svg" xmlns:xlink="http://www.w3.org/1999/xlink" width="96" height="96" viewBox="0 0 96 96">
  <defs>
    <clipPath id="clip-path">
      <path id="Path_28270" data-name="Path 28270" d="M0,0H96V96H0Z" transform="translate(241 128)" fill="#c7c7cc"/>
    </clipPath>
  </defs>
  <g id="ic_add_fav" transform="translate(-241 -128)" clip-path="url(#clip-path)">
    <path id="Path_28267" data-name="Path 28267" d="M21.254,0H2.832A2.829,2.829,0,0,0,0,2.832V45.207c0,.1.033.133.1.133,1.233,0,12.393-12.126,12.393-12.126S22.853,45.307,23.986,45.307c.067,0,.1-.033.1-.133V2.832A2.873,2.873,0,0,0,21.254,0Z" transform="translate(276.807 153.049)" fill="none" stroke="#047e63" stroke-width="2.5"/>
    <path id="Path_28268" data-name="Path 28268" d="M13.472,19.1c-.384,0-.672.156-.672.364V29.783c0,.208.288.364.672.364s.672-.156.672-.364v-10.3c0-.208-.32-.382-.672-.382Zm0,0" transform="translate(313.623 156.523) rotate(90)" fill="#1ba486" stroke="#1ba486" stroke-width="1"/>
    <path id="Path_28269" data-name="Path 28269" d="M13.472,19.1c-.384,0-.672.156-.672.364V29.783c0,.208.288.364.672.364s.672-.156.672-.364v-10.3c0-.208-.32-.382-.672-.382Zm0,0" transform="translate(275.528 145.372)" fill="#1ba486" stroke="#1ba486" stroke-width="1"/>
  </g>
</svg>
