<svg xmlns="http://www.w3.org/2000/svg" xmlns:xlink="http://www.w3.org/1999/xlink" width="100" height="100" viewBox="0 0 100 100">
  <defs>
    <clipPath id="clip-path">
      <rect id="Rectangle_12821" data-name="Rectangle 12821" width="100" height="100" transform="translate(-0.196 -0.252)" fill="#fff"/>
    </clipPath>
  </defs>
  <g id="ic_about" transform="translate(0.196 0.252)" clip-path="url(#clip-path)">
    <path id="about" d="M58.539,68.978c-1.9.762-3.428,1.295-4.57,1.752a12.363,12.363,0,0,1-3.961.609A7.931,7.931,0,0,1,44.6,69.664,5.458,5.458,0,0,1,42.7,65.4a18.675,18.675,0,0,1,.152-2.057,15.958,15.958,0,0,1,.457-2.361l2.361-8.455c.229-.838.381-1.6.533-2.285a9.3,9.3,0,0,0,.229-1.98,3.153,3.153,0,0,0-.686-2.285,3.685,3.685,0,0,0-2.59-.609,5.833,5.833,0,0,0-1.9.3c-.609.229-1.219.381-1.676.533l.609-2.59a46.168,46.168,0,0,1,4.494-1.6,13.206,13.206,0,0,1,4.037-.686A7.722,7.722,0,0,1,54.045,43a5.582,5.582,0,0,1,1.828,4.342c0,.381-.076.99-.152,1.9a12.3,12.3,0,0,1-.457,2.514L52.9,60.143a16.86,16.86,0,0,0-.533,2.285,12.051,12.051,0,0,0-.229,1.98,2.661,2.661,0,0,0,.762,2.285,4.455,4.455,0,0,0,2.59.609,6.609,6.609,0,0,0,1.98-.3c.762-.229,1.219-.381,1.6-.533Zm-.381-34.2A5.908,5.908,0,0,1,54.121,36.3a6.049,6.049,0,0,1-4.037-1.523,4.879,4.879,0,0,1-1.676-3.732,4.768,4.768,0,0,1,1.676-3.732,5.571,5.571,0,0,1,4.037-1.523,6.049,6.049,0,0,1,4.037,1.523,4.879,4.879,0,0,1,1.676,3.732A5.027,5.027,0,0,1,58.158,34.778Z" transform="translate(-1.03 1.391)" fill="#047e63" stroke="#047e63" stroke-width="2"/>
  </g>
</svg>
