<svg xmlns="http://www.w3.org/2000/svg" xmlns:xlink="http://www.w3.org/1999/xlink" width="96" height="96" viewBox="0 0 96 96">
  <defs>
    <clipPath id="clip-path">
      <rect id="Rectangle_12820" data-name="Rectangle 12820" width="96" height="96" transform="translate(2297 7151)" fill="#fff" stroke="#707070" stroke-width="1"/>
    </clipPath>
  </defs>
  <g id="ic_contact" transform="translate(-2297 -7151)" clip-path="url(#clip-path)">
    <g id="Group_29843" data-name="Group 29843" transform="translate(2313.907 7184)">
      <path id="Path_28281" data-name="Path 28281" d="M43.633,27.163a1.262,1.262,0,0,1-1.284,1.215H.739s-.058,0-.058-.055c0,0-.058,0-.058-.055,0,0-.058,0-.058-.055,0,0-.058,0-.058-.055L.447,28.1h0l-.058-.055a.055.055,0,0,0-.058-.055.055.055,0,0,0-.058-.055.055.055,0,0,0-.058-.055.055.055,0,0,0-.058-.055A.055.055,0,0,0,.1,27.77V1.325A1.206,1.206,0,0,1,1.323,0h41.61s.058,0,.058.055c0,0,.058,0,.058.055,0,0,.058,0,.058.055,0,0,.058,0,.058.055s.058,0,.058.055l.058.055h0l.058.055L43.4.442A.055.055,0,0,0,43.458.5a.055.055,0,0,0,.058.055.055.055,0,0,0,.058.055v.5h0c0,8.171,0,26.059,0,26.059Z" transform="translate(0.14 0.984)" fill="#047e63"/>
      <path id="Path_28282" data-name="Path 28282" d="M44.617,29.361A1.325,1.325,0,0,1,43.3,30.674H.754a.058.058,0,0,1-.06-.06.058.058,0,0,1-.06-.06.058.058,0,0,1-.06-.06.058.058,0,0,1-.06-.06l-.06-.06h0l-.06-.06a.058.058,0,0,0-.06-.06.058.058,0,0,0-.06-.06.058.058,0,0,0-.06-.06.058.058,0,0,0-.06-.06.058.058,0,0,0-.06-.06V1.432A1.276,1.276,0,0,1,1.35,0H43.9a.058.058,0,0,1,.06.06.058.058,0,0,1,.06.06.058.058,0,0,1,.06.06.058.058,0,0,1,.06.06c0,.06.06,0,.06.06l.06.06h0l.06.06.06.06a.058.058,0,0,0,.06.06A.058.058,0,0,0,44.5.6a.058.058,0,0,0,.06.06V9.31a1.313,1.313,0,1,1-2.626,0V4.237L30.115,14.561c.06.06.119.119.179.119L41.931,26.2V17.545a1.313,1.313,0,1,1,2.626,0V29.361ZM2.723,26.2,14.36,14.681h0L5.588,7.34a1.324,1.324,0,0,1-.179-1.85,1.383,1.383,0,0,1,1.85-.179L22.238,17.844,39.783,2.626H2.723V26.2Zm25.721-9.668a1.048,1.048,0,0,1-.239-.3l-4.953,4.356a1.215,1.215,0,0,1-.9.358,1.426,1.426,0,0,1-.835-.3l-5.073-4.237-.179.179L4.573,28.048H40.081Z" transform="translate(0)" fill="#fff"/>
      <path id="Path_28283" data-name="Path 28283" d="M69.055,20.973v1.611h6.863a1.313,1.313,0,1,1,0,2.626H69.055v7.579M84.511,18.347h-22.5a1.313,1.313,0,1,1,0-2.626h22.5a1.325,1.325,0,0,1,1.313,1.313A1.287,1.287,0,0,1,84.511,18.347Zm-2.327-7.221H72.1a1.313,1.313,0,1,1,0-2.626H82.184a1.313,1.313,0,1,1,0,2.626Zm-7.46,17.008h9.787a1.313,1.313,0,1,1,0,2.626H74.724a1.313,1.313,0,1,1,0-2.626Z" transform="translate(-24.438 -3.427)" fill="#1ba486"/>
    </g>
  </g>
</svg>
