<svg xmlns="http://www.w3.org/2000/svg" xmlns:xlink="http://www.w3.org/1999/xlink" width="96" height="96" viewBox="0 0 96 96">
  <defs>
    <clipPath id="clip-path">
      <rect id="Rectangle_12837" data-name="Rectangle 12837" width="96" height="96" transform="translate(957 1499)" fill="#fff" stroke="#707070" stroke-width="1"/>
    </clipPath>
  </defs>
  <g id="ic_dwawen2" transform="translate(-957 -1499)" clip-path="url(#clip-path)">
    <g id="Group_29856" data-name="Group 29856" transform="translate(967 1511)">
      <g id="Group_29855" data-name="Group 29855">
        <path id="Path_28341" data-name="Path 28341" d="M147.965,206.813l3.112-.275c-.976-.094-1.958-.143-2.932-.151C148.087,206.53,148.025,206.671,147.965,206.813Z" transform="translate(-125.114 -174.514)" fill="#bfbfbf"/>
        <path id="Path_28342" data-name="Path 28342" d="M43.156,210.3c-3.433.9-5.93,2.474-6.531,4.594l-3.716,25.653a3.334,3.334,0,0,0,4.258,3.669c.544-.161,1.126-.324,1.738-.482a3.379,3.379,0,0,1-.486-.421,3.3,3.3,0,0,1-.877-2.766l3.716-25.653c.483-1.706,2.195-3.056,4.633-3.989q-.681-.445-1.325-.928Q43.838,210.121,43.156,210.3Z" transform="translate(-27.798 -177.549)" fill="rgba(255,255,255,0.3)"/>
        <path id="Path_28343" data-name="Path 28343" d="M80.868,316.327c-3.336,0-6.717.1-10.048.282a.927.927,0,0,0,.1,1.851c3.3-.183,6.643-.278,9.946-.28,3.379,0,6.8.092,10.168.28h.052a.927.927,0,0,0,.051-1.852c-3.367-.187-6.784-.282-10.159-.282Z" transform="translate(-59.143 -267.475)" fill="#fff"/>
        <path id="Path_28344" data-name="Path 28344" d="M177.72,348.773h-4.395a.927.927,0,1,0,0,1.853h4.4a.927.927,0,0,0,0-1.853Z" transform="translate(-145.774 -294.91)" fill="#fff"/>
        <path id="Path_28345" data-name="Path 28345" d="M70.873,350.626H81.64a.927.927,0,0,0,0-1.853H70.873a.927.927,0,1,0,0,1.853" transform="translate(-59.144 -294.91)" fill="#fff"/>
        <path id="Path_28346" data-name="Path 28346" d="M69.949,377.8a.929.929,0,0,0,1.01.835c3.26-.309,6.573-.467,9.848-.473,3.388-.009,6.818.154,10.194.473.03,0,.059,0,.088,0a.927.927,0,0,0,.086-1.849c-3.435-.324-6.926-.485-10.372-.481-3.332.006-6.7.167-10.02.481a.927.927,0,0,0-.835,1.01" transform="translate(-59.143 -318.197)" fill="#fff"/>
        <path id="Path_28347" data-name="Path 28347" d="M80.934,287.518H70.873a.927.927,0,0,0,0,1.853H80.934a.927.927,0,0,0,0-1.853" transform="translate(-59.144 -243.115)" fill="#fff"/>
        <path id="Path_28348" data-name="Path 28348" d="M177.72,287.518h-4.395a.927.927,0,1,0,0,1.853h4.4a.927.927,0,0,0,0-1.853Z" transform="translate(-145.774 -243.115)" fill="#fff"/>
        <path id="Path_28349" data-name="Path 28349" d="M94.97,256.22a.927.927,0,0,0-.87-.98c-3.566-.212-7.186-.313-10.759-.3-3.212.01-6.469.112-9.678.3a.927.927,0,1,0,.11,1.85c3.175-.188,6.4-.289,9.574-.3,3.537-.01,7.115.09,10.643.3l.056,0A.927.927,0,0,0,94.97,256.22Z" transform="translate(-61.55 -215.566)" fill="#fff"/>
        <path id="Path_28350" data-name="Path 28350" d="M75.924,190.587,69.5,156.555a3,3,0,0,0-2.936-2.4h-.386l-1.724-7.632a2.084,2.084,0,0,0-1.425-1.575,2.123,2.123,0,0,0-2.091.475c-1.8,1.682-5.871,4.522-12.989,4.65-3.159.057-7.448.8-9.944,4.013a8.2,8.2,0,0,0-1.346,2.565,27.463,27.463,0,0,0-13.622-3.374l-.013,1.853c5.231.038,10.059,1.319,13.34,3.526l.27,30.592a31.771,31.771,0,0,0-14.347-3.175,49.2,49.2,0,0,0-13.182,2.036,2.41,2.41,0,0,1-2.273-.489,2.359,2.359,0,0,1-.8-2.159l2.089-14.427a.927.927,0,1,0-1.833-.273v.007L4.194,185.2a4.231,4.231,0,0,0,1.047,3.454l.687,1.141a5.9,5.9,0,0,0,3.078,2.517H3.032a1.185,1.185,0,0,1-.874-.365,1.12,1.12,0,0,1-.292-.949L7.65,156.966a1.137,1.137,0,0,1,1.127-.959h1.945a6.3,6.3,0,0,0-2.8,3.477l-.475,3.253a.927.927,0,1,0,1.833.273V163l.453-3.131c.569-1.857,3.259-3.426,7.214-4.206l-.358-1.818q-.7.139-1.354.306H8.777a2.98,2.98,0,0,0-2.956,2.509L.038,190.691a2.992,2.992,0,0,0,1.04,2.778,3.086,3.086,0,0,0,1.985.693H72.917a3.077,3.077,0,0,0,2.178-.867,2.982,2.982,0,0,0,.829-2.707m-62.991,1.721.059-.021c4.162-1.54,11.192-2.693,21.61.021Zm-.584-1.759a4,4,0,0,1-3.7-.494,4.326,4.326,0,0,0,.979-.17c5.613-1.664,16-3.642,25.281.588C24.114,187.693,16.742,188.923,12.349,190.549Zm26.129-2.456c.009-.326.3-6.26,9.548-6.855,12.419-.8,16.856-4.064,19.319-6.456l1.546,10.679a2.359,2.359,0,0,1-.8,2.159,2.411,2.411,0,0,1-2.273.489c-12.8-3.794-21.76-1.663-27.326,1.149Zm2.114,4.214c10.292-2.676,17.229-1.54,21.335-.021l.059.021Zm21.979-1.759c-7.432-2.75-15.862-1.733-22.4-.046,5.294-2.434,13.52-4.054,25.115-.618a4.318,4.318,0,0,0,.979.17A4,4,0,0,1,62.57,190.549Zm11.3,1.34a1.139,1.139,0,0,1-.885.419H65.912a5.9,5.9,0,0,0,3.078-2.517l.687-1.141a4.232,4.232,0,0,0,1.046-3.454L68.98,173.151c.073-.065.144-.125.213-.18a2.1,2.1,0,0,0,.765-2.087l0-.017L66.6,156.008a1.141,1.141,0,0,1,1.084.9L74.1,190.942A1.135,1.135,0,0,1,73.87,191.889Z" transform="translate(0 -122.479)" fill="#fffcee"/>
        <path id="Path_28351" data-name="Path 28351" d="M60.556,44.919l-3.3-9.776,1.014-2.3A24.815,24.815,0,0,0,55.1,7.5a1.228,1.228,0,0,0-1.635-.24,5.431,5.431,0,0,0-.677.422c.014-.1.027-.185.039-.266.184-1.247.317-2.148-.251-2.683A24.819,24.819,0,0,0,45.54.08a.927.927,0,0,0-1.221.474L43.164,3.17a24.661,24.661,0,0,0-1.6,15.053,4.941,4.941,0,0,0,1.513,2.039,1.6,1.6,0,0,0-.445,1.65A24.663,24.663,0,0,0,55.505,35.76l3.3,9.752a.927.927,0,0,0,1.76-.581l0-.013ZM56.374,32.544l-6.1-18.058a.927.927,0,1,0-1.76.581l0,.013,6.142,18.174A22.8,22.8,0,0,1,44.455,21.5a2.906,2.906,0,0,1,.517-.414.926.926,0,0,0,.122-1.491A10.535,10.535,0,0,1,43.367,17.8,22.821,22.821,0,0,1,44.859,3.918l.773-1.752a22.923,22.923,0,0,1,5.5,3.754,11.828,11.828,0,0,1-.14,1.223c-.175,1.186-.3,2.043.189,2.579.764.834,1.8.094,2.487-.4.09-.065.208-.149.322-.225a22.962,22.962,0,0,1,2.582,23Z" transform="translate(-34.703 -0.001)" fill="#fff"/>
      </g>
      <path id="Path_28352" data-name="Path 28352" d="M268.809,309.927a.927.927,0,0,0-.927.927v1.129a.927.927,0,0,0,1.853,0v-1.129a.927.927,0,0,0-.927-.927" transform="translate(-226.512 -262.063)" fill="#1ba486"/>
      <path id="Path_28353" data-name="Path 28353" d="M267.012,257.856h.024a.927.927,0,0,0,.9-.95h0l-.166-6.6a.927.927,0,1,0-1.853.046l.166,6.6A.926.926,0,0,0,267.012,257.856Z" transform="translate(-224.852 -210.889)" fill="#1ba486"/>
    </g>
  </g>
</svg>
