<svg xmlns="http://www.w3.org/2000/svg" xmlns:xlink="http://www.w3.org/1999/xlink" width="96" height="96" viewBox="0 0 96 96">
  <defs>
    <clipPath id="clip-path">
      <rect id="Rectangle_909" data-name="Rectangle 909" width="96" height="96" transform="translate(271 117)" fill="#fff" stroke="#707070" stroke-width="1"/>
    </clipPath>
  </defs>
  <g id="ic_downlod_setting" transform="translate(-242 -1967)">
    <g id="ico_undo_notactive" transform="translate(-29 1850)" clip-path="url(#clip-path)">
      <path id="_223ed637876b0981285cd3161e3297dd" data-name="223ed637876b0981285cd3161e3297dd" d="M52.034,33.6A2.633,2.633,0,0,0,49.4,36.234V46.767A2.633,2.633,0,0,1,46.767,49.4H9.9a2.633,2.633,0,0,1-2.633-2.633V36.234a2.633,2.633,0,1,0-5.267,0V46.767a7.9,7.9,0,0,0,7.9,7.9H46.767a7.9,7.9,0,0,0,7.9-7.9V36.234A2.633,2.633,0,0,0,52.034,33.6Zm-25.57,4.5a2.633,2.633,0,0,0,.869.553,2.475,2.475,0,0,0,2,0A2.633,2.633,0,0,0,30.2,38.1L40.737,27.57A2.644,2.644,0,1,0,37,23.83l-6.03,6.057V4.633a2.633,2.633,0,0,0-5.267,0V29.887L19.67,23.83A2.644,2.644,0,0,0,15.93,27.57Z" transform="translate(291 137)" fill="#047e63"/>
    </g>
  </g>
</svg>
