<svg xmlns="http://www.w3.org/2000/svg" xmlns:xlink="http://www.w3.org/1999/xlink" width="96" height="96" viewBox="0 0 96 96">
  <defs>
    <clipPath id="clip-path">
      <rect id="Rectangle_12815" data-name="Rectangle 12815" width="96" height="96" transform="translate(957 1499)" fill="#fff" stroke="#707070" stroke-width="1"/>
    </clipPath>
  </defs>
  <g id="ic_go_comments" transform="translate(-957 -1499)" clip-path="url(#clip-path)">
    <path id="Path_28279" data-name="Path 28279" d="M.132,25.283,7.657,59.143a3.989,3.989,0,0,0,3.612,3.01H63.941A3.726,3.726,0,0,0,67.7,58.391V13.243a3.726,3.726,0,0,0-3.762-3.762H61.984V1.956A1.866,1.866,0,0,0,60.178,0H22.555A1.992,1.992,0,0,0,20.6,1.956V9.481H18.643a3.726,3.726,0,0,0-3.762,3.762v3.762H11.269a3.726,3.726,0,0,0-3.762,3.762H3.744A3.305,3.305,0,0,0,.885,22.122,4.023,4.023,0,0,0,.132,25.283Zm61.852-12.19h1.956V58.24H61.984ZM22.555,1.806H60.178V58.24h0c0-.3-7.675-34.613-7.675-34.613a3.989,3.989,0,0,0-3.612-3.01H26.318a3.726,3.726,0,0,0-3.762-3.762ZM18.793,13.093H20.75v3.762H18.793Zm9.631-4.816a1.992,1.992,0,0,1,1.956-1.956H52.8a1.956,1.956,0,0,1,0,3.913H30.381A1.992,1.992,0,0,1,28.425,8.277Zm0,7.675A1.992,1.992,0,0,1,30.381,14H52.8a1.956,1.956,0,0,1,0,3.913H30.381A1.992,1.992,0,0,1,28.425,15.952Z" transform="translate(969.964 1515.863)" fill="#047e63"/>
  </g>
</svg>
