<svg xmlns="http://www.w3.org/2000/svg" xmlns:xlink="http://www.w3.org/1999/xlink" width="96" height="96" viewBox="0 0 96 96">
  <defs>
    <clipPath id="clip-path">
      <path id="Path_28278" data-name="Path 28278" d="M0,0H96V96H0Z" transform="translate(241 128)" fill="#c7c7cc"/>
    </clipPath>
  </defs>
  <g id="ic_go_fav" transform="translate(-241 -128)" clip-path="url(#clip-path)">
    <path id="Path_28276" data-name="Path 28276" d="M21.254,0H2.832A2.829,2.829,0,0,0,0,2.832V45.207c0,.1.033.133.1.133,1.233,0,12.393-12.126,12.393-12.126S22.853,45.307,23.986,45.307c.067,0,.1-.033.1-.133V2.832A2.873,2.873,0,0,0,21.254,0Z" transform="translate(276.807 153.049)" fill="#047e63"/>
    <path id="Path_28277" data-name="Path 28277" d="M13.5,19.1a.683.683,0,0,0-.7.7V39.621a.7.7,0,0,0,1.4,0V19.833a.734.734,0,0,0-.7-.733Zm0,0" transform="translate(268.271 140.312)" fill="#fff"/>
  </g>
</svg>
