<svg xmlns="http://www.w3.org/2000/svg" width="96" height="96" viewBox="0 0 96 96">
  <g id="ic_home2" transform="translate(15 15.754)">
    <g id="home_icon" data-name="home icon" transform="translate(0 0)">
      <path id="Path_2" data-name="Path 2" d="M0,0H96V96H0Z" transform="translate(-15 -15.754)" fill="none"/>
      <g id="Group_29736" data-name="Group 29736" transform="translate(6 7.246)">
        <path id="Path_28178" data-name="Path 28178" d="M8.35,37.081,5,33.732,30.643,7.043h1.151L57.332,33.627l-3.14,3.454L32,14.579l-1.779.1Z" transform="translate(-4.477 -6.306)" fill="rgba(255,255,255,0.3)"/>
        <g id="Group_29735" data-name="Group 29735" transform="translate(0 0)">
          <g id="Group_29737" data-name="Group 29737">
            <path id="Path_28179" data-name="Path 28179" d="M45.092,27.463V47.539a1.582,1.582,0,0,1-1.58,1.58H42.295a.785.785,0,1,0,0,1.57h1.217a3.154,3.154,0,0,0,3.15-3.15V29.1l1.6,1.663a1.86,1.86,0,0,0,2.657.027l2.129-2.129a1.87,1.87,0,0,0,.026-2.6L28.91.9a2.934,2.934,0,0,0-4.234,0L.515,26.055a1.87,1.87,0,0,0,.026,2.6L2.67,30.788a1.86,1.86,0,0,0,2.657-.027l1.6-1.663v3.814a.785.785,0,1,0,1.57,0V27.463L26.2,9.036a.827.827,0,0,1,1.194,0l17.7,18.427m6.844.085-2.129,2.129a.29.29,0,0,1-.414,0L28.523,7.949h0l0,0a2.4,2.4,0,0,0-3.455,0L7.143,26.6h0L4.194,29.673a.29.29,0,0,1-.414,0L1.651,27.548a.291.291,0,0,1,0-.406L25.809,1.99a1.364,1.364,0,0,1,1.969,0L51.94,27.142A.292.292,0,0,1,51.936,27.548Z" transform="translate(0 0)" fill="#fff"/>
            <path id="Path_28180" data-name="Path 28180" d="M97.853,331.974H93.2v-8.889a7.164,7.164,0,0,0-14.329,0v8.889H69.312a1.582,1.582,0,0,1-1.58-1.58V319.431a.785.785,0,0,0-1.57,0v10.964a3.154,3.154,0,0,0,3.15,3.15h28.54a.785.785,0,0,0,0-1.57Z" transform="translate(-59.237 -282.856)" fill="#fff"/>
          </g>
        </g>
      </g>
    </g>
  </g>
</svg>
