<svg xmlns="http://www.w3.org/2000/svg" xmlns:xlink="http://www.w3.org/1999/xlink" width="96" height="96" viewBox="0 0 96 96">
  <defs>
    <clipPath id="clip-path">
      <path id="Path_28368" data-name="Path 28368" d="M0,0H96V96H0Z" transform="translate(241 128)" fill="#c7c7cc"/>
    </clipPath>
  </defs>
  <g id="ic_ksaed2" transform="translate(-241 -128)" clip-path="url(#clip-path)">
    <g id="Group_29859" data-name="Group 29859" transform="translate(261 154)">
      <g id="Group_29858" data-name="Group 29858">
        <g id="Group_29857" data-name="Group 29857">
          <path id="Path_28354" data-name="Path 28354" d="M99.932,13.192S83.194,9.749,77.3,20.329l-17.568-.27a5.763,5.763,0,1,0,0-11.527h34.58c3.183,0,5.62,4.659,5.62,4.659" transform="translate(-53.009 -7.572)" fill="#fff"/>
          <path id="Path_28355" data-name="Path 28355" d="M100.076,406.83a5.763,5.763,0,0,1-5.763,5.763H59.733a5.763,5.763,0,0,0,0-11.527h34.58a5.763,5.763,0,0,1,5.763,5.763" transform="translate(-53.009 -355.921)" fill="#fff"/>
          <path id="Path_28356" data-name="Path 28356" d="M178.5,221.013a25.778,25.778,0,0,0-1.671,5.235,34.532,34.532,0,0,0-.759,6.061l-4.38,3.208a32.822,32.822,0,0,1,4.121-10.624A32.118,32.118,0,0,1,178.5,221.013Z" transform="translate(-152.365 -196.135)" fill="#fff"/>
          <path id="Path_28357" data-name="Path 28357" d="M271.919,48.426c-.39,2.85-1.825,9.764-6.666,11.317-3.016.97-6.176,1.854-8.568,4.092a10.794,10.794,0,0,0-2.248,2.987,11.526,11.526,0,0,1-8.489,6.514c3.62.571,8.536-1.014,11.371-6.514a10.794,10.794,0,0,1,2.248-2.987c2.392-2.238,5.552-3.122,8.568-4.092,6.138-1.969,6.8-12.554,6.8-12.554a14.348,14.348,0,0,1-3.016,1.237" transform="translate(-218.263 -41.877)" fill="rgba(255,255,255,0.3)"/>
          <path id="Path_28358" data-name="Path 28358" d="M17.178,64.246a5.763,5.763,0,0,1-5.763-5.763V14.3a5.763,5.763,0,0,1,5.763-5.763H14.3A5.763,5.763,0,0,0,8.533,14.3V58.482A5.763,5.763,0,0,0,14.3,64.246Z" transform="translate(-7.572 -7.573)" fill="rgba(255,255,255,0.3)"/>
          <path id="Path_28359" data-name="Path 28359" d="M1.093,411.521a.961.961,0,0,1-.01-1.921h.01a.961.961,0,0,1,0,1.921" transform="translate(-0.113 -363.494)" fill="#fff"/>
          <path id="Path_28360" data-name="Path 28360" d="M69.228,300.587h7.684a.961.961,0,0,0,0-1.921H69.228a.961.961,0,0,0,0,1.921" transform="translate(-60.583 -265.047)" fill="#fff"/>
          <path id="Path_28361" data-name="Path 28361" d="M69.228,257.921h9.605a.961.961,0,1,0,0-1.921H69.228a.961.961,0,0,0,0,1.921" transform="translate(-60.583 -227.184)" fill="#fff"/>
          <path id="Path_28362" data-name="Path 28362" d="M69.228,215.254h9.605a.961.961,0,1,0,0-1.921H69.228a.961.961,0,0,0,0,1.921" transform="translate(-60.583 -189.319)" fill="#fff"/>
          <path id="Path_28363" data-name="Path 28363" d="M69.228,172.587h9.605a.961.961,0,1,0,0-1.921H69.228a.961.961,0,0,0,0,1.921" transform="translate(-60.583 -151.455)" fill="#fff"/>
          <path id="Path_28364" data-name="Path 28364" d="M25.246,11.527H11.43a6.715,6.715,0,0,0,0-9.605H41.3a4.792,4.792,0,0,1,4.678,3.822,2.01,2.01,0,0,0,.478.151,3.675,3.675,0,0,0,.816.052,6.864,6.864,0,0,0,.692-.057A6.723,6.723,0,0,0,41.3,0H6.724A6.731,6.731,0,0,0,0,6.724v36.5a.961.961,0,1,0,1.921,0V6.724a4.8,4.8,0,1,1,4.8,4.8.961.961,0,0,0,0,1.921H23.757Z" fill="#fff"/>
          <path id="Path_28365" data-name="Path 28365" d="M207.541,38.8a.961.961,0,0,0-.979-.027,15.963,15.963,0,0,1-7.318,1.827c-.557.117-10.4-.477-13.09-.146a.329.329,0,0,0-.068.011,15.615,15.615,0,0,0-8.88,4.647c-.237.239-2.266,2.637-2.266,2.637-4.955,6.733-3.245,12.842-2.215,15.254-1.7,2.928-3.3,7.562-3.3,10.505l.263.6c.073-.02,4.94-2.857,4.94-2.857a.961.961,0,0,0,.394-.768,32.673,32.673,0,0,1,.48-4.514,9.049,9.049,0,0,0,3.958.865,10.945,10.945,0,0,0,2.158-.218,12.017,12.017,0,0,0,7.091-4.506c.018-.018.028-.042.045-.061a15.332,15.332,0,0,0,1.514-2.366,33.441,33.441,0,0,1,2.349-2.972v-.026c2-1.72,4.559-2.534,7.216-3.38l.686-.219c6.684-2.146,7.437-12.951,7.467-13.41a.96.96,0,0,0-.449-.872M173.121,69.979l-1.894,1.386a34.356,34.356,0,0,1,2.439-6.074,35.347,35.347,0,0,0-.545,4.688m26.812-18.723h0l-.68.218a30.559,30.559,0,0,0-5.667,2.242,3.554,3.554,0,0,1-2.209-.881.961.961,0,1,0-1.358,1.36,4.611,4.611,0,0,0,1.456.961c-.151.127-.3.259-.444.394-.026.023-.052.045-.076.071a11.62,11.62,0,0,0-2.4,3.191,13.572,13.572,0,0,1-1.017,1.667,11.991,11.991,0,0,1-5.057-1.1.961.961,0,1,0-.859,1.719,12.787,12.787,0,0,0,4.316,1.2,9.929,9.929,0,0,1-4.707,2.444,7.565,7.565,0,0,1-5.332-.73,24.787,24.787,0,0,1,1.416-4.322c7.415-9.151,12.8-11.275,22.031-12.555a.961.961,0,1,0-.264-1.9c-9.579,1.329-15.514,3.663-23.316,13.33a.413.413,0,0,0-.026.033c-.627.778-1.191,1.559-1.715,2.336a13.3,13.3,0,0,1,2.068-11.468,9.768,9.768,0,0,0,.232,1.409.961.961,0,1,0,1.863-.473,8.9,8.9,0,0,1-.137-3.382c.169-.181.34-.363.521-.546a13.948,13.948,0,0,1,5.934-3.664,8.884,8.884,0,0,0-.529,3.026.96.96,0,1,0,1.921,0,6.661,6.661,0,0,1,.972-3.538,26.53,26.53,0,0,1,4.826-.134,6.647,6.647,0,0,0-.9,1.325.961.961,0,0,0,.434,1.287.95.95,0,0,0,.43.1.96.96,0,0,0,.865-.534,5.7,5.7,0,0,1,1.789-2.017c3.8.261,7.709.5,11.554-1.078-.465,2.915-1.883,8.72-5.934,10.015" transform="translate(-150.357 -34.305)" fill="#fff"/>
          <path id="Path_28366" data-name="Path 28366" d="M42.264,226.784v-21.11l-1.916,2.306v18.728H6.724a.961.961,0,0,0,0,1.921,4.8,4.8,0,1,1-4.8,4.8.961.961,0,0,0-1.921,0,6.731,6.731,0,0,0,6.724,6.724H41.3a6.724,6.724,0,0,0,.961-13.371m-.961,11.45H11.43a6.715,6.715,0,0,0,0-9.605H41.3a4.8,4.8,0,1,1,0,9.605" transform="translate(0 -182.523)" fill="#fff"/>
          <path id="Path_28367" data-name="Path 28367" d="M68.267,342.295a.96.96,0,0,0,.961.961h9.078s.814.07.814-.908a.9.9,0,0,0-.814-1.013H69.228a.96.96,0,0,0-.961.961" transform="translate(-60.583 -302.912)" fill="#fff"/>
        </g>
      </g>
    </g>
  </g>
</svg>
