<svg xmlns="http://www.w3.org/2000/svg" xmlns:xlink="http://www.w3.org/1999/xlink" width="96" height="96" viewBox="0 0 96 96">
  <defs>
    <clipPath id="clip-path">
      <rect id="Rectangle_12838" data-name="Rectangle 12838" width="96" height="96" transform="translate(958 1360)" fill="#fff" stroke="#707070" stroke-width="1"/>
    </clipPath>
  </defs>
  <g id="ic_shaikh2" transform="translate(-958 -1360)" clip-path="url(#clip-path)">
    <g id="Group_29861" data-name="Group 29861" transform="translate(973.007 1375.007)">
      <g id="Group_29860" data-name="Group 29860" transform="translate(-0.007 -0.007)">
        <path id="Path_28370" data-name="Path 28370" d="M167.445,284.031c-1.57,3.8-2.118,15.83-14.721,15.312-13.243,1.112-14.968-11.857-16.2-15.312,1.229-.289,7.474,3.8,7.474,3.8l3.379-5.414,9.361.354,3.2,4.806s6.957-3.623,7.506-3.547" transform="translate(-118.864 -245.877)" fill="#fff"/>
        <path id="Path_28371" data-name="Path 28371" d="M184.653,185.6l-4.416.276a1.1,1.1,0,0,0,.067,2.206c.023,0,.046,0,.07,0l1.036-.064v.066a1.1,1.1,0,1,0,2.208,0v-.205l1.174-.073a1.1,1.1,0,0,0-.138-2.2" transform="translate(-156.016 -161.587)" fill="#fff"/>
        <path id="Path_28372" data-name="Path 28372" d="M235.922,307.2h-4.416a1.1,1.1,0,1,0,0,2.208h4.416a1.1,1.1,0,0,0,0-2.208" transform="translate(-200.592 -267.452)" fill="#1ba486"/>
        <path id="Path_28373" data-name="Path 28373" d="M72.717,32.953a1.1,1.1,0,0,0,.351-1.521,21.469,21.469,0,0,1-2.592-10.46c0-10.309,7.635-16.792,22.081-18.755a45.777,45.777,0,0,1,7.868,1.735A43.956,43.956,0,0,0,76.232,18.087,1.1,1.1,0,0,0,77.97,19.45,42.574,42.574,0,0,1,104.388,5.516c6.741,3.253,10.251,8.464,10.251,15.43a21.69,21.69,0,0,1-2.593,10.487,1.1,1.1,0,0,0,1.874,1.168,23.5,23.5,0,0,0,2.928-11.656C116.847,5.53,101.72,1.212,92.7.009a1.078,1.078,0,0,0-.291,0c-9.017,1.2-24.144,5.523-24.144,20.963A23.463,23.463,0,0,0,71.2,32.6a1.1,1.1,0,0,0,1.521.351" transform="translate(-59.435 0.001)" fill="#fff"/>
        <path id="Path_28374" data-name="Path 28374" d="M154.855,79.65a1.1,1.1,0,1,0,2.093-.7,14.884,14.884,0,0,0-7.37-8.135c.683-.126,1.37-.251,2.079-.362a1.1,1.1,0,0,0-.345-2.182,73.809,73.809,0,0,0-13.124,3.286,1.08,1.08,0,0,0-.339.121c-12.02,4.332-18.383,10.617-18.383,13.141l0,4.489c1.07,16.037,4.3,25.321,17.663,25.321,10.118,0,16.251-4.142,17.665-25.394V84.821c0-2.506-3.787-9.155-12.578-12.258,1.161-.342,2.39-.661,3.66-.963,1.175.39,7.163,2.617,8.975,8.05m-17.722,32.773c-8.167,0-12.257-3.4-14.229-13.113a40.775,40.775,0,0,0,6.09,3.1,1.108,1.108,0,0,0,1.494-.808c.243-1.2,1.38-4.634,3.333-4.634h6.624c1.954,0,3.09,3.431,3.334,4.634a1.1,1.1,0,0,0,1.492.808,40.827,40.827,0,0,0,6.084-3.095c-1.975,9.713-6.066,13.11-14.223,13.11m15.457-27.6,0,4.343c-.171,2.571-.4,4.881-.694,6.962-.028.023-.063.033-.088.058-1.441,1.441-4.539,2.937-6.219,3.684-.616-1.876-2.12-5.112-5.145-5.112H133.82c-3.025,0-4.528,3.236-5.145,5.112-1.68-.747-4.778-2.243-6.219-3.684a.861.861,0,0,0-.094-.062c-.292-2.061-.517-4.346-.687-6.886V84.844c.147-1.105,5.329-6.878,16.8-11.051,10.428,2.273,14.112,9.606,14.112,11.027" transform="translate(-104.01 -59.428)" fill="#fff"/>
        <path id="Path_28375" data-name="Path 28375" d="M281.658,421.779l-1.128-4.5c-1.385-4.153-3.626-7.334-18.4-7.334a1.67,1.67,0,0,0-.869.155,18.063,18.063,0,0,0-4.736,4.539,42.82,42.82,0,0,0-8.731,6.625,1.1,1.1,0,1,0,1.561,1.561,47.273,47.273,0,0,1,4.751-4.034,22.618,22.618,0,0,0-1.073,2.95,1.1,1.1,0,0,0,.76,1.365,1.069,1.069,0,0,0,.3.044,1.106,1.106,0,0,0,1.061-.8,19.6,19.6,0,0,1,2.942-6.1,1.086,1.086,0,0,0,.356-.485,17.08,17.08,0,0,1,3.7-3.615c14.346,0,15.38,3.094,16.265,5.743l1.1,4.416a1.1,1.1,0,0,0,2.142-.537" transform="translate(-215.447 -356.908)" fill="#fff"/>
        <path id="Path_28376" data-name="Path 28376" d="M282.637,187.8l1.172.073v.205a1.1,1.1,0,1,0,2.208,0v-.066l1.036.064c.023,0,.045,0,.07,0a1.1,1.1,0,0,0,.068-2.206l-4.417-.276a1.1,1.1,0,1,0-.137,2.2" transform="translate(-245.167 -161.584)" fill="#fff"/>
        <path id="Path_28377" data-name="Path 28377" d="M353.793,435.378a1.1,1.1,0,0,0-1.531.306,16.824,16.824,0,0,0-2.394,8.341,1.1,1.1,0,0,0,2.208,0,14.7,14.7,0,0,1,2.023-7.116,1.1,1.1,0,0,0-.306-1.531" transform="translate(-304.601 -378.886)" fill="#fff"/>
        <path id="Path_28378" data-name="Path 28378" d="M15.457,409.6c-9.783,0-13.174,4.013-14.32,7.46l-1.1,4.416a1.1,1.1,0,0,0,.8,1.339,1.08,1.08,0,0,0,.269.033,1.1,1.1,0,0,0,1.07-.836l1.081-4.336c1.3-3.894,5.4-5.869,12.2-5.869,5.2,0,10.335,3.179,13.407,8.3a1.1,1.1,0,0,0,1.892-1.137c-3.467-5.778-9.329-9.368-15.3-9.368" transform="translate(0 -356.603)" fill="#fff"/>
      </g>
    </g>
  </g>
</svg>
