<svg id="img_icon2" xmlns="http://www.w3.org/2000/svg" xmlns:xlink="http://www.w3.org/1999/xlink" width="85.75" height="87.54" viewBox="0 0 85.75 87.54">
  <defs>
    <clipPath id="clip-path">
      <rect id="Rectangle_174" data-name="Rectangle 174" width="85.749" height="87.54" fill="#1ba486"/>
    </clipPath>
  </defs>
  <g id="Group_728">
    <g id="Group_708">
      <g id="Group_739" data-name="Group 739">
        <g id="Group_738" data-name="Group 738">
          <g id="Group_707" clip-path="url(#clip-path)">
            <path id="Path_330" data-name="Path 330" d="M72.7,8.294a1.379,1.379,0,0,0,1.094,1.592l8.157,1.492a1.473,1.473,0,0,1,1.194,1.691h0L80.857,26.9a1.376,1.376,0,0,0,1.194,1.592h0a1.379,1.379,0,0,0,1.592-1.094l2.487-13.827a4.357,4.357,0,0,0-3.482-4.974h0L74.491,7.1A1.576,1.576,0,0,0,72.7,8.294Z" transform="translate(-0.38 -0.037)" fill="#1ba486"/>
            <path id="Path_331" data-name="Path 331" d="M79.394,35.694,78.2,42.26a1.376,1.376,0,0,0,1.194,1.592h0a1.437,1.437,0,0,0,1.592-1.094l1.194-6.566A1.379,1.379,0,0,0,81.085,34.6h0A1.3,1.3,0,0,0,79.394,35.694Z" transform="translate(-0.409 -0.181)" fill="#1ba486"/>
            <path id="Path_332" data-name="Path 332" d="M46.257,55.112l-2.885,4.278-.1.1-6.267-18.7h0a1.378,1.378,0,0,0-1.094-1.094,1.731,1.731,0,0,0-1.492.5c0,.1-.1.1-.1.2-.7.995-7.162,9.351-11.241,14.524h0L32.032,4.378a1.473,1.473,0,0,1,1.691-1.194L54.116,6.766a1.622,1.622,0,0,0,1.791-1.293h0A1.334,1.334,0,0,0,54.812,3.98L34.221.3a4.357,4.357,0,0,0-4.974,3.482l-.3,1.89h0L5.969,9.452A7.112,7.112,0,0,0,.2,17.708L11.142,79.782a7.112,7.112,0,0,0,8.257,5.77L38.6,82.17h0l29.744,5.272a4.282,4.282,0,0,0,4.974-3.482h0l6.367-36.409a1.472,1.472,0,0,0-1.293-1.691h0A1.448,1.448,0,0,0,76.8,47.054L74.509,60.086h0l-9.55-29.246a1.337,1.337,0,0,0-1.791-.9,1.052,1.052,0,0,0-.7.6L53.221,44.567a1.394,1.394,0,0,0,.3,1.89h0a1.347,1.347,0,0,0,1.99-.4c1.99-3.084,7.063-10.644,7.56-11.44h.1L73.514,66.054h0L70.43,83.562a1.473,1.473,0,0,1-1.691,1.194L50.833,81.573h0l-6.367-18.7h0L48.645,56.6a1.52,1.52,0,0,0-.4-1.99h0A1.449,1.449,0,0,0,46.257,55.112ZM24.671,27.258A4.32,4.32,0,0,1,18.7,28.352a4.4,4.4,0,0,1-1.094-5.969,4.713,4.713,0,0,1,2.785-1.791c.2,0,.5-.1.8-.1a4.246,4.246,0,0,1,4.278,4.278h0A5.25,5.25,0,0,1,24.671,27.258ZM2.985,17.31a4.3,4.3,0,0,1,3.482-4.974h0l21.985-3.88h0L26.461,20A5.771,5.771,0,0,0,25.268,19,7.147,7.147,0,0,0,17.111,30.74a7.348,7.348,0,0,0,4.079,1.293,6.119,6.119,0,0,0,1.293-.1,8.6,8.6,0,0,0,2.089-.7h0L21.488,48.646l-.9-1.194h0l-.3-.3-.1-.1c-.1-.1-.2-.1-.4-.1h-.3a.365.365,0,0,0-.3.1h-.1a1.33,1.33,0,0,0-.8.7c0,.1-.1.1-.1.2s-.1.1-.1.2c-.3.995-4.178,13.032-6.168,19.3h0ZM18.9,82.766a4.357,4.357,0,0,1-4.974-3.482l-1.194-6.963h0c.1-.2,5.272-15.22,7.162-21.189l.8.995h0l-3.88,21.786a4.357,4.357,0,0,0,3.482,4.974l9.848,1.791h0Zm1.89-6.566A1.473,1.473,0,0,1,19.6,74.51l2.487-13.927h0c.7-.8,11.838-15.121,13.032-16.712h0c.2.6,12.236,36.21,12.534,37.006h0Z" transform="translate(0 -0.001)" fill="#1ba486"/>
          </g>
        </g>
      </g>
    </g>
    <path id="Path_304" d="M227.855,65.8a7.16,7.16,0,0,0-2.885,14.026c.2,0,.3.1.5.1a5.255,5.255,0,0,0,1.293.1,7.072,7.072,0,0,0,7.063-7.262,7.235,7.235,0,0,0-5.969-6.963Zm2.984,7.759a4.293,4.293,0,1,1-8.456-1.492,4.26,4.26,0,0,1,4.178-3.581,2.191,2.191,0,0,1,.8.1,4.3,4.3,0,0,1,3.482,4.974Z" transform="translate(-181.2 -53.341)" fill="#1ba486"/>
  </g>
  <circle id="Ellipse_113" data-name="Ellipse 113" cx="1.89" cy="1.89" r="1.89" transform="translate(48.943 48.943)" fill="#1ba486"/>
  <circle id="Ellipse_114" data-name="Ellipse 114" cx="1.492" cy="1.492" r="1.492" transform="translate(57.597 4.775)" fill="#1ba486"/>
  <path id="Path_333" data-name="Path 333" d="M66.991,5.9l2.586.4a1.473,1.473,0,0,1,1.194,1.691h0A1.473,1.473,0,0,1,69.08,9.183l-2.586-.4A1.473,1.473,0,0,1,65.3,7.094h0A1.529,1.529,0,0,1,66.991,5.9Z" transform="translate(-0.341 -0.031)" fill="#1ba486"/>
</svg>
