<svg id="ic_repeat" xmlns="http://www.w3.org/2000/svg" xmlns:xlink="http://www.w3.org/1999/xlink" width="96" height="96" viewBox="0 0 96 96">
  <defs>
    <clipPath id="clip-path">
      <rect id="Rectangle_909" data-name="Rectangle 909" width="96" height="96" transform="translate(271 117)" fill="#fff" stroke="#707070" stroke-width="1"/>
    </clipPath>
  </defs>
  <g id="ico_undo_notactive" transform="translate(-271 -117)" clip-path="url(#clip-path)">
    <path id="_6e4c5f265e75da880cc04488801a4385" data-name="6e4c5f265e75da880cc04488801a4385" d="M12.786,13.557H38.054V18.08a1.251,1.251,0,0,0,2.148.884l7.05-7.05a1.251,1.251,0,0,0,0-1.794L40.2,3.071a1.263,1.263,0,0,0-2.148.91V8.5H10.26A2.534,2.534,0,0,0,7.733,11.03V21.137a2.527,2.527,0,1,0,5.053,0ZM38.054,38.824H12.786V34.3a1.251,1.251,0,0,0-2.148-.884l-7.05,7.05a1.251,1.251,0,0,0,0,1.794l7.05,7.05a1.263,1.263,0,0,0,2.148-.91V43.877H40.58a2.534,2.534,0,0,0,2.527-2.527V31.244a2.527,2.527,0,1,0-5.053,0Z" transform="translate(293.79 139.294)" fill="#fff"/>
  </g>
</svg>
